<svg width="364" height="328" viewBox="0 0 364 328" fill="none" xmlns="http://www.w3.org/2000/svg">
<path d="M231.371 189.84L181.134 130.112L80.2939 131.033L19.1229 190.579L20.3589 191.373H19.9176V315.229H231.235V191.373L231.371 189.84Z" fill="#3F3D56"/>
<path d="M181.186 130.239L118.427 203.774V315.229H231.235V189.785L181.186 130.239Z" fill="#4FB394"/>
<path d="M186.747 253.593H163.709V273.944H186.747V253.593Z" fill="white"/>
<path d="M186.747 218.367H163.709V238.395H186.747V218.367Z" fill="white"/>
<path d="M84.363 248.192H61.3245V268.543H84.363V248.192Z" fill="white"/>
<path d="M84.363 212.967H61.3245V232.995H84.363V212.967Z" fill="white"/>
<path d="M364 314.842H0V315.708H364V314.842Z" fill="#3F3D56"/>
<path d="M309.181 301.165L310.914 309.822L302.252 311.553L303.551 300.733L309.181 301.165Z" fill="#A0616A"/>
<path d="M336.465 299.434L334.3 310.254H323.906L328.237 297.27L336.465 299.434Z" fill="#A0616A"/>
<path d="M345.992 224.124L347.725 235.81L345.559 261.346L343.827 270.868L336.465 302.031C336.465 302.031 328.236 302.031 326.937 298.569L329.102 280.823C329.102 280.823 330.835 266.54 330.402 264.809C329.969 263.078 323.472 235.378 323.472 235.378C323.472 235.378 313.945 279.092 312.646 282.987C311.346 286.883 309.614 303.762 309.614 303.762C309.614 303.762 302.252 305.061 301.819 303.762C301.386 302.464 300.953 271.734 300.953 266.973C300.953 262.212 301.819 259.615 301.819 258.75C301.819 257.884 298.407 216.562 298.407 216.562L345.992 224.124Z" fill="#2F2E41"/>
<path d="M328.236 308.09C328.236 308.09 330.402 308.523 331.701 308.09C333 307.658 331.701 305.061 331.701 305.061H336.465C336.465 305.061 341.662 316.747 343.827 317.612C345.992 318.478 352.922 328 344.693 328C339.616 327.935 334.661 326.434 330.402 323.672C330.402 323.672 329.536 319.776 325.638 319.344C321.74 318.911 319.142 314.15 319.142 314.15L324.772 303.762C324.772 303.762 326.071 308.523 328.236 308.09Z" fill="#2F2E41"/>
<path d="M307.882 307.658C307.882 307.658 307.016 309.389 306.149 308.523C305.283 307.658 304.417 305.494 304.417 305.494C304.417 305.494 301.819 304.195 301.386 305.494C300.953 306.792 299.22 313.717 298.354 314.583C297.488 315.448 288.393 324.537 297.488 326.269C306.582 328 308.315 324.105 308.315 324.105C308.315 324.105 307.016 321.941 309.614 321.075C312.212 320.209 312.646 317.18 312.646 317.18L310.913 304.195C310.913 304.195 309.181 308.523 307.882 307.658Z" fill="#2F2E41"/>
<path d="M355.953 193.828L357.252 216.334C357.252 216.334 363.315 230.617 355.087 230.184C346.859 229.751 352.055 215.901 352.055 215.901L343.999 195.815L355.953 193.828Z" fill="#A0616A"/>
<path d="M289.26 187.335L287.96 209.842C287.96 209.842 281.897 224.125 290.126 223.692C298.354 223.259 293.157 209.409 293.157 209.409L301.213 189.322L289.26 187.335Z" fill="#A0616A"/>
<path d="M323.906 138.427C330.124 138.427 335.165 133.389 335.165 127.174C335.165 120.959 330.124 115.921 323.906 115.921C317.687 115.921 312.646 120.959 312.646 127.174C312.646 133.389 317.687 138.427 323.906 138.427Z" fill="#A0616A"/>
<path d="M332.784 131.719C332.784 131.719 329.752 143.838 335.815 146.867C341.878 149.897 316.76 154.225 315.027 146.867L315.894 143.405C315.894 143.405 319.358 139.077 318.492 135.181L332.784 131.719Z" fill="#A0616A"/>
<path d="M326.071 147.084C326.071 147.084 318.598 147.781 316.271 142.888C316.271 142.888 298.787 144.054 294.89 160.068L301.386 201.618C301.386 201.618 294.456 213.737 295.323 215.035C295.323 215.035 290.992 227.154 330.835 227.587L348.158 226.721C348.392 224.261 348.246 221.779 347.725 219.364C346.859 215.468 342.095 188.201 342.095 188.201C342.095 188.201 355.087 167.859 353.788 164.829C352.489 161.799 350.408 149.853 333.692 145.006C333.692 145.006 333.433 147.516 326.071 147.084Z" fill="#E6E6E6"/>
<path d="M348.158 157.471L353.788 164.829C353.788 164.829 359.418 195.559 357.685 195.992C355.953 196.424 345.559 199.887 343.827 198.589C342.095 197.29 334.299 171.754 334.299 171.754L348.158 157.471Z" fill="#E6E6E6"/>
<path d="M302.252 155.307L294.889 160.068C294.889 160.068 284.063 190.365 287.094 191.664C290.126 192.962 307.016 192.096 307.016 192.096L302.252 155.307Z" fill="#E6E6E6"/>
<path d="M336.213 117.103C336.213 117.103 332.313 108.658 324.838 110.607C317.363 112.556 313.138 115.479 312.813 118.403C312.488 121.326 312.975 125.711 312.975 125.711C312.975 125.711 313.788 119.702 318.988 121.001C321.754 121.692 325.347 121.74 328.105 121.633C328.646 121.611 329.185 121.699 329.691 121.893C330.196 122.086 330.657 122.38 331.045 122.757C331.433 123.134 331.74 123.586 331.947 124.085C332.154 124.585 332.257 125.122 332.25 125.662L332.114 134.965C332.114 134.965 342.94 128.04 336.213 117.103Z" fill="#2F2E41"/>
<path d="M283.106 120.379H130.15C129.399 120.378 128.679 120.079 128.148 119.549C127.617 119.018 127.318 118.298 127.317 117.548V47.3578C127.318 46.6073 127.617 45.8878 128.148 45.3571C128.679 44.8264 129.399 44.5279 130.15 44.527H283.106C283.857 44.5279 284.577 44.8264 285.108 45.3571C285.639 45.8878 285.937 46.6073 285.938 47.3578V117.548C285.937 118.298 285.639 119.018 285.108 119.549C284.577 120.079 283.857 120.378 283.106 120.379ZM130.15 45.6593C129.699 45.6598 129.267 45.8389 128.949 46.1573C128.63 46.4757 128.451 46.9075 128.45 47.3578V117.548C128.451 117.998 128.63 118.43 128.949 118.748C129.267 119.067 129.699 119.246 130.15 119.246H283.106C283.556 119.246 283.988 119.067 284.307 118.748C284.625 118.43 284.805 117.998 284.805 117.548V47.3578C284.805 46.9075 284.625 46.4757 284.307 46.1573C283.988 45.8389 283.556 45.6598 283.106 45.6593H130.15Z" fill="#E6E6E6"/>
<path d="M152.783 80.9226C159.155 80.9226 164.321 75.7599 164.321 69.3914C164.321 63.0229 159.155 57.8602 152.783 57.8602C146.411 57.8602 141.245 63.0229 141.245 69.3914C141.245 75.7599 146.411 80.9226 152.783 80.9226Z" fill="#4FB394"/>
<path d="M179.431 61.7041C179.178 61.7037 178.927 61.7532 178.694 61.8496C178.46 61.946 178.248 62.0875 178.069 62.266C177.89 62.4445 177.748 62.6565 177.651 62.8898C177.554 63.1232 177.505 63.3734 177.505 63.626C177.505 63.8786 177.554 64.1288 177.651 64.3621C177.748 64.5955 177.89 64.8075 178.069 64.986C178.248 65.1645 178.46 65.306 178.694 65.4024C178.927 65.4988 179.178 65.5482 179.431 65.5479H270.088C270.598 65.5479 271.087 65.3454 271.447 64.9849C271.808 64.6245 272.011 64.1357 272.011 63.626C272.011 63.1163 271.808 62.6274 271.447 62.267C271.087 61.9066 270.598 61.7041 270.088 61.7041H179.431Z" fill="#E6E6E6"/>
<path d="M179.431 73.2352C179.178 73.2349 178.927 73.2843 178.694 73.3807C178.46 73.4771 178.248 73.6186 178.069 73.7971C177.89 73.9756 177.748 74.1876 177.651 74.421C177.554 74.6543 177.505 74.9045 177.505 75.1571C177.505 75.4097 177.554 75.6599 177.651 75.8932C177.748 76.1266 177.89 76.3386 178.069 76.5171C178.248 76.6956 178.46 76.8371 178.694 76.9335C178.927 77.0299 179.178 77.0793 179.431 77.079H218.441C218.693 77.0793 218.944 77.0299 219.177 76.9335C219.411 76.8371 219.623 76.6956 219.802 76.5171C219.981 76.3386 220.123 76.1266 220.22 75.8932C220.317 75.6599 220.366 75.4097 220.366 75.1571C220.366 74.9045 220.317 74.6543 220.22 74.421C220.123 74.1876 219.981 73.9756 219.802 73.7971C219.623 73.6186 219.411 73.4771 219.177 73.3807C218.944 73.2843 218.693 73.2349 218.441 73.2352H179.431Z" fill="#E6E6E6"/>
<path d="M143.933 91.6703C142.47 91.6703 141.28 92.5326 141.28 93.5922C141.28 94.6518 142.47 95.514 143.933 95.514H269.012C270.474 95.514 271.665 94.6518 271.665 93.5922C271.665 92.5326 270.474 91.6703 269.012 91.6703H143.933Z" fill="#E6E6E6"/>
<path d="M143.933 103.202C142.47 103.202 141.28 104.064 141.28 105.123C141.28 106.183 142.47 107.045 143.933 107.045H269.012C270.474 107.045 271.665 106.183 271.665 105.123C271.665 104.064 270.474 103.202 269.012 103.202H143.933Z" fill="#E6E6E6"/>
<path d="M255.558 41.0153C266.891 41.0153 276.078 31.8337 276.078 20.5077C276.078 9.18159 266.891 0 255.558 0C244.225 0 235.038 9.18159 235.038 20.5077C235.038 31.8337 244.225 41.0153 255.558 41.0153Z" fill="#4FB394"/>
<path d="M255.558 53.8456L249.141 42.7391L242.725 31.6327H255.558H268.39L261.974 42.7391L255.558 53.8456Z" fill="#4FB394"/>
<path d="M255.723 27.7375C259.789 27.7375 263.085 24.4433 263.085 20.3797C263.085 16.3161 259.789 13.0219 255.723 13.0219C251.657 13.0219 248.361 16.3161 248.361 20.3797C248.361 24.4433 251.657 27.7375 255.723 27.7375Z" fill="white"/>
<path d="M332.98 129.338C333.936 129.338 334.712 128.369 334.712 127.174C334.712 125.979 333.936 125.01 332.98 125.01C332.023 125.01 331.247 125.979 331.247 127.174C331.247 128.369 332.023 129.338 332.98 129.338Z" fill="#A0616A"/>
</svg>
