<svg width="20" height="20" viewBox="0 0 20 20" fill="none" xmlns="http://www.w3.org/2000/svg">
<g clip-path="url(#clip0)">
<path d="M19.811 9.69499C19.8189 9.68534 19.8258 9.67518 19.8332 9.6653C19.842 9.65342 19.8513 9.64182 19.8595 9.62948C19.8674 9.61764 19.8743 9.60534 19.8816 9.59315C19.8882 9.58198 19.8952 9.57108 19.9014 9.55956C19.9081 9.54714 19.9137 9.53437 19.9197 9.52171C19.9253 9.50972 19.9313 9.49792 19.9364 9.48566C19.9415 9.47335 19.9456 9.46081 19.95 9.44832C19.9548 9.43515 19.9598 9.42214 19.9639 9.40867C19.9677 9.39617 19.9705 9.38347 19.9736 9.37086C19.9771 9.35715 19.9809 9.34359 19.9837 9.32961C19.9866 9.31496 19.9883 9.3002 19.9904 9.28547C19.9922 9.27332 19.9945 9.26133 19.9957 9.24903C20.0011 9.19434 20.0011 9.13923 19.9957 9.08454C19.9945 9.07224 19.9922 9.06028 19.9904 9.04814C19.9883 9.03337 19.9866 9.01861 19.9837 9.004C19.9809 8.99001 19.9771 8.9765 19.9736 8.96279C19.9704 8.95013 19.9677 8.93744 19.9639 8.92494C19.9598 8.9115 19.9548 8.89849 19.95 8.88537C19.9456 8.87287 19.9415 8.86029 19.9364 8.84799C19.9313 8.83572 19.9253 8.82393 19.9197 8.81197C19.9137 8.79928 19.9081 8.78651 19.9014 8.77409C19.8953 8.7626 19.8883 8.7517 19.8816 8.74053C19.8743 8.72834 19.8675 8.71604 19.8595 8.70417C19.8513 8.69186 19.8421 8.68026 19.8333 8.66843C19.8258 8.6585 19.8189 8.64831 19.811 8.63866C19.7937 8.61761 19.7755 8.59733 19.7562 8.57808C19.7561 8.57792 19.756 8.57776 19.7558 8.57761L17.2559 6.07771C16.9305 5.75229 16.4028 5.75229 16.0774 6.07771C15.752 6.40313 15.752 6.93076 16.0774 7.25618L17.1548 8.33356H12.5002C12.0399 8.33356 11.6669 8.70663 11.6669 9.16684C11.6669 9.62706 12.0399 10.0001 12.5002 10.0001H17.1548L16.0774 11.0775C15.752 11.4029 15.752 11.9306 16.0774 12.256C16.4028 12.5814 16.9304 12.5814 17.2559 12.256L19.7558 9.75608C19.7559 9.75592 19.756 9.75576 19.7562 9.75561C19.7755 9.73631 19.7937 9.71608 19.811 9.69499Z" fill="#7CA095"/>
<path d="M14.1688 11.6674C13.7086 11.6674 13.3356 12.0405 13.3356 12.5007V16.6672H10.0024V3.33475V3.33444C10.0024 2.96644 9.76097 2.642 9.40853 2.53627L6.51372 1.66782H13.3356V5.83433C13.3356 6.29455 13.7087 6.66762 14.1689 6.66762C14.6291 6.66762 15.0022 6.29455 15.0022 5.83433V0.834538C15.0022 0.374323 14.6291 0.00125217 14.1689 0.00125217H0.836065C0.835986 0.00125217 0.835908 0.00125217 0.83583 0.00125217C0.811183 0.00121311 0.78677 0.00238493 0.762552 0.00449422C0.380302 0.0333212 0.131132 0.284756 0.0405893 0.584939C0.0347692 0.60361 0.0296913 0.622672 0.0251602 0.641968C0.0246915 0.644038 0.0243009 0.646148 0.0238322 0.648257C0.0193402 0.6681 0.0155903 0.688255 0.0125045 0.708684C0.0120748 0.711575 0.0116061 0.714426 0.0111764 0.717317C0.00855937 0.735949 0.00648914 0.754815 0.00512201 0.773916C0.00270023 0.804696 0.00195807 0.835554 0.00273929 0.866412V17.5008C0.00273929 17.8981 0.283118 18.2401 0.672634 18.318L9.00561 19.9846C9.52126 20.0877 10.0023 19.6933 10.0023 19.1675V18.3338H14.1688C14.6291 18.3338 15.0021 17.9608 15.0021 17.5005V12.5007C15.0021 12.0405 14.6291 11.6674 14.1688 11.6674ZM8.33576 18.151L1.66935 16.8177V1.95484L8.33576 3.95476V17.5005V18.151Z" fill="#7CA095"/>
</g>
<defs>
<clipPath id="clip0">
<rect width="20" height="20" fill="white"/>
</clipPath>
</defs>
</svg>
