<svg width="372" height="258" viewBox="0 0 372 258" fill="none" xmlns="http://www.w3.org/2000/svg">
<g clip-path="url(#clip0)">
<path d="M0 0V124.926H124.905V0H0ZM63.4708 122.211C62.7995 122.211 62.1433 122.011 61.5851 121.638C61.0269 121.265 60.5919 120.735 60.335 120.115C60.0781 119.495 60.0109 118.812 60.1419 118.154C60.2728 117.495 60.5961 116.89 61.0708 116.415C61.5454 115.941 62.1502 115.617 62.8086 115.486C63.467 115.355 64.1495 115.423 64.7697 115.679C65.3899 115.936 65.92 116.372 66.2929 116.93C66.6659 117.488 66.865 118.144 66.865 118.816C66.865 119.716 66.5074 120.58 65.8708 121.216C65.2343 121.853 64.371 122.211 63.4708 122.211Z" fill="#4FB394"/>
<path d="M372 145.974C372 201.61 331.443 247.778 278.287 256.513C272.24 257.505 266.121 258.002 259.993 258C245.283 258.003 230.716 255.108 217.126 249.479C203.535 243.85 191.186 235.599 180.785 225.195C170.383 214.792 162.133 202.441 156.505 188.848C150.877 175.255 147.982 160.686 147.985 145.974C147.985 84.1046 198.134 33.9474 259.993 33.9474C283.371 33.9116 306.17 41.2269 325.164 54.859C353.522 75.1799 372 108.418 372 145.974Z" fill="#4FB394"/>
<path d="M337.742 37.3061L347.47 34.2725L348.309 25.7037C348.309 25.7037 324.649 16.7648 317.085 32.5761C314.414 38.1589 311.048 41.5117 307.81 43.5132C303.351 46.2703 297.854 46.5938 292.93 44.795C276.532 38.8054 272.671 55.8384 272.671 55.8384C272.671 55.8384 274.088 58.2631 284.196 58.8593C289.226 59.156 293.342 62.942 296.208 66.6709C302.345 74.6557 314.951 72.3481 318.046 62.7644C318.096 62.6099 318.145 62.4535 318.193 62.2951C323.029 46.4529 345.042 59.0664 345.042 59.0664L346.447 44.7174L337.742 37.3061Z" fill="#2F2E41"/>
<path d="M271.459 76.0845C278.04 76.0845 283.374 70.7494 283.374 64.1681C283.374 57.5868 278.04 52.2516 271.459 52.2516C264.879 52.2516 259.545 57.5868 259.545 64.1681C259.545 70.7494 264.879 76.0845 271.459 76.0845Z" fill="#2F2E41"/>
<path d="M265.502 127.723C283.049 127.723 297.274 113.495 297.274 95.9454C297.274 78.3953 283.049 64.1681 265.502 64.1681C247.955 64.1681 233.73 78.3953 233.73 95.9454C233.73 113.495 247.955 127.723 265.502 127.723Z" fill="#2F2E41"/>
<path d="M264.509 129.378C276.573 129.378 286.353 119.597 286.353 107.531C286.353 95.4651 276.573 85.684 264.509 85.684C252.446 85.684 242.666 95.4651 242.666 107.531C242.666 119.597 252.446 129.378 264.509 129.378Z" fill="#A0616A"/>
<path d="M255.904 124.081L259.876 145.266L279.733 142.618C279.733 142.618 276.424 126.068 278.41 121.433L255.904 124.081Z" fill="#A0616A"/>
<path d="M157.941 206.173C157.941 206.173 135.436 192.932 133.45 202.201C131.465 211.469 155.955 215.441 155.955 215.441L157.941 206.173Z" fill="#A0616A"/>
<path d="M294.957 77.7396C294.957 77.7396 279.071 65.8231 272.452 70.4573C265.833 75.0915 290.324 90.3181 292.972 88.994C295.619 87.67 294.957 77.7396 294.957 77.7396Z" fill="#A0616A"/>
<path d="M279.733 131.364L255.904 135.336V145.928C255.904 145.928 233.399 153.211 233.399 156.521C233.399 159.831 227.442 172.409 227.442 172.409C227.442 172.409 212.88 183.002 224.794 195.58C224.794 195.58 229.428 202.863 226.118 203.525C222.809 204.187 215.528 206.173 218.837 208.821C222.147 211.469 271.79 229.344 275.762 228.02C279.733 226.696 310.181 179.692 310.181 167.775C310.181 155.859 297.605 138.646 297.605 138.646L283.043 136.66L279.733 131.364Z" fill="#D0CDE1"/>
<path d="M235.385 155.859C235.385 155.859 226.118 154.535 222.809 165.789C219.499 177.044 208.247 213.455 208.247 213.455C208.247 213.455 167.87 212.793 157.279 202.863L152.646 218.089C152.646 218.089 213.542 239.936 218.837 235.964C224.133 231.992 247.3 167.775 247.3 167.775L235.385 155.859Z" fill="#D0CDE1"/>
<path d="M295.619 140.632L297.605 138.646C297.605 138.646 322.758 111.503 322.096 104.883C322.096 104.883 308.858 88.3321 292.31 92.9662C292.31 92.9662 285.029 75.0915 296.281 75.7535C307.534 76.4156 349.234 73.7675 348.573 92.9662C347.911 112.165 308.196 171.085 308.196 171.085L295.619 140.632Z" fill="#D0CDE1"/>
<path d="M278.287 256.513C272.24 257.505 266.121 258.002 259.993 258C240.52 258.03 221.379 252.959 204.474 243.291L208.408 235.323L220.929 209.944L221.486 208.82L230.606 211.57L276.424 225.373L276.549 227.488L278.287 256.513Z" fill="#2F2E41"/>
<path d="M286.181 97.6867C288.654 90.4178 281.4 81.3744 269.98 77.4877C258.559 73.601 247.296 76.3428 244.823 83.6117C242.35 90.8806 249.604 99.924 261.025 103.811C272.445 107.697 283.708 104.956 286.181 97.6867Z" fill="#2F2E41"/>
<path d="M64.013 119.684C68.6129 111.254 79.6303 105.917 88.643 110.728C92.6998 112.893 95.9245 116.724 96.9483 121.251C98.1376 126.511 95.6331 131.526 93.0491 135.945C91.6466 138.343 90.1098 140.692 88.949 143.222C87.747 145.842 86.8882 148.87 87.7931 151.72C88.6085 154.287 90.6503 156.155 92.887 157.527C95.3558 158.984 97.9816 160.156 100.714 161.022C106.34 162.893 112.273 163.661 118.189 163.283C121.13 163.083 124.045 162.612 126.899 161.875C129.934 161.101 132.913 160.12 135.953 159.365C141.03 158.103 146.818 157.476 151.631 160.011C156.308 162.472 158.401 167.621 159.048 172.63C160.244 181.879 156.577 191.478 149.956 197.956C146.78 201.063 142.783 203.631 138.43 204.681C134.631 205.598 129.754 205.539 126.731 202.699C123.358 199.529 124.15 194.446 126.83 191.102C130.25 186.836 136.043 185.811 141.213 185.707C147.094 185.589 152.969 186.465 158.846 185.92C161.715 185.697 164.53 185.018 167.185 183.908C169.519 182.881 171.648 181.44 173.47 179.655C177.098 176.129 179.544 171.432 180.762 166.548C182.227 160.675 181.908 154.503 180.77 148.604C180.164 145.562 179.384 142.558 178.433 139.606C178.04 138.36 176.073 138.892 176.469 140.147C179.972 151.256 181.924 164.101 175.157 174.415C172.356 178.79 167.993 181.931 162.957 183.199C157.1 184.655 150.954 183.935 144.999 183.718C139.337 183.512 133.121 183.735 128.266 187.033C124.284 189.738 121.5 194.884 122.703 199.742C123.864 204.427 128.365 206.802 132.867 207.169C137.591 207.554 142.239 205.968 146.206 203.489C154.458 198.331 159.945 189.26 161.093 179.644C161.692 174.632 161.083 169.235 158.811 164.687C157.614 162.224 155.75 160.147 153.432 158.691C151.121 157.274 148.451 156.576 145.77 156.329C139.678 155.768 133.825 157.86 128.046 159.46C125.094 160.317 122.068 160.894 119.008 161.186C116.038 161.432 113.051 161.383 110.091 161.04C107.154 160.694 104.259 160.051 101.451 159.122C98.6988 158.272 96.064 157.08 93.6075 155.576C91.4402 154.19 89.5661 152.205 89.4595 149.501C89.3438 146.568 90.8225 143.824 92.2292 141.351C95.0079 136.465 98.4394 131.687 99.1651 125.968C99.7998 120.965 97.7871 116.034 94.3119 112.466C92.57 110.655 90.473 109.223 88.1522 108.26C85.8313 107.297 83.3367 106.823 80.8245 106.87C75.6677 107.017 70.7302 109.26 66.9372 112.705C65.0565 114.414 63.4739 116.425 62.2546 118.656C61.6264 119.807 63.3843 120.836 64.013 119.684Z" fill="#3F3D56"/>
<path d="M67.5438 11.5421C64.3122 11.5423 61.1688 12.5956 58.5894 14.5427C56.0101 16.4898 54.1354 19.2246 53.2493 22.3328C52.3632 25.441 52.5139 28.7533 53.6786 31.7682C54.8433 34.783 56.9586 37.3361 59.7041 39.0409C59.7473 39.0678 59.7931 39.0908 59.8366 39.1172C60.3853 37.5086 61.4235 36.1121 62.8056 35.1231C64.1876 34.1342 65.8444 33.6025 67.5438 33.6025C69.2431 33.6025 70.8999 34.1342 72.282 35.1231C73.6641 36.1121 74.7022 37.5086 75.251 39.1172C75.2945 39.0908 75.3403 39.0678 75.3835 39.0409C78.129 37.3361 80.2442 34.783 81.409 31.7682C82.5737 28.7533 82.7244 25.441 81.8383 22.3328C80.9521 19.2246 79.0774 16.4898 76.4981 14.5427C73.9188 12.5956 70.7753 11.5423 67.5438 11.5421ZM67.5438 32.1638C66.5006 32.1638 65.4808 31.8544 64.6135 31.2747C63.7461 30.6951 63.07 29.8712 62.6708 28.9072C62.2716 27.9433 62.1672 26.8826 62.3707 25.8593C62.5742 24.836 63.0765 23.896 63.8142 23.1583C64.5518 22.4205 65.4916 21.9181 66.5148 21.7145C67.5379 21.511 68.5984 21.6154 69.5622 22.0147C70.526 22.414 71.3497 23.0901 71.9293 23.9577C72.5089 24.8252 72.8182 25.8451 72.8182 26.8885C72.8182 28.2876 72.2625 29.6294 71.2733 30.6187C70.2842 31.608 68.9426 32.1638 67.5438 32.1638Z" fill="#3F3D56"/>
<path d="M42.0876 55.6737C43.5872 55.6737 44.8029 54.4578 44.8029 52.9579C44.8029 51.458 43.5872 50.2421 42.0876 50.2421C40.5879 50.2421 39.3723 51.458 39.3723 52.9579C39.3723 54.4578 40.5879 55.6737 42.0876 55.6737Z" fill="#3F3D56"/>
<path d="M42.0876 67.8947C43.5872 67.8947 44.8029 66.6788 44.8029 65.1789C44.8029 63.679 43.5872 62.4631 42.0876 62.4631C40.5879 62.4631 39.3723 63.679 39.3723 65.1789C39.3723 66.6788 40.5879 67.8947 42.0876 67.8947Z" fill="#3F3D56"/>
<path d="M42.0876 80.1158C43.5872 80.1158 44.8029 78.8999 44.8029 77.4C44.8029 75.9001 43.5872 74.6842 42.0876 74.6842C40.5879 74.6842 39.3723 75.9001 39.3723 77.4C39.3723 78.8999 40.5879 80.1158 42.0876 80.1158Z" fill="#3F3D56"/>
<path d="M42.0876 92.3369C43.5872 92.3369 44.8029 91.121 44.8029 89.6211C44.8029 88.1212 43.5872 86.9053 42.0876 86.9053C40.5879 86.9053 39.3723 88.1212 39.3723 89.6211C39.3723 91.121 40.5879 92.3369 42.0876 92.3369Z" fill="#3F3D56"/>
<path d="M82.8175 74.6842H52.2701C50.7704 74.6842 49.5547 75.9001 49.5547 77.4V77.4C49.5547 78.8999 50.7704 80.1158 52.2701 80.1158H82.8175C84.3172 80.1158 85.5329 78.8999 85.5329 77.4C85.5329 75.9001 84.3172 74.6842 82.8175 74.6842Z" fill="#3F3D56"/>
<path d="M82.8175 86.9053H52.2701C50.7704 86.9053 49.5547 88.1212 49.5547 89.6211C49.5547 91.121 50.7704 92.3369 52.2701 92.3369H82.8175C84.3172 92.3369 85.5329 91.121 85.5329 89.6211C85.5329 88.1212 84.3172 86.9053 82.8175 86.9053Z" fill="#3F3D56"/>
<path d="M82.8175 62.4631H52.2701C50.7704 62.4631 49.5547 63.679 49.5547 65.1789V65.1789C49.5547 66.6788 50.7704 67.8947 52.2701 67.8947H82.8175C84.3172 67.8947 85.5329 66.6788 85.5329 65.1789C85.5329 63.679 84.3172 62.4631 82.8175 62.4631Z" fill="#3F3D56"/>
<path d="M82.8175 50.2421H52.2701C50.7704 50.2421 49.5547 51.458 49.5547 52.9579V52.9579C49.5547 54.4578 50.7704 55.6737 52.2701 55.6737H82.8175C84.3172 55.6737 85.5329 54.4578 85.5329 52.9579C85.5329 51.458 84.3172 50.2421 82.8175 50.2421Z" fill="#3F3D56"/>
</g>
<defs>
<clipPath id="clip0">
<rect width="372" height="258" fill="white"/>
</clipPath>
</defs>
</svg>
