<svg width="386" height="286" viewBox="0 0 386 286" fill="none" xmlns="http://www.w3.org/2000/svg">
<g clip-path="url(#clip0)">
<path opacity="0.1" d="M25.2637 112.097H58.8119V157.947H27.7166C27.6373 158.421 27.558 158.892 27.4687 159.366H58.8119V196.336C58.759 196.336 58.7061 196.296 58.6565 196.276C57.775 195.925 56.8934 195.552 56.0118 195.159C55.8234 195.073 55.6383 194.983 55.4465 194.901C54.5649 194.483 53.6834 194.041 52.8018 193.575C52.4943 193.412 52.1869 193.243 51.8861 193.071C46.9919 190.333 42.5437 186.861 38.6955 182.776C38.5798 182.667 38.474 182.547 38.3649 182.445C37.8294 181.861 37.3037 181.271 36.7946 180.668C36.6029 180.446 36.4178 180.221 36.2293 180.005C35.6277 179.269 35.0458 178.507 34.4838 177.741C34.3979 177.625 34.3185 177.513 34.2359 177.41C31.9336 174.216 30.0244 170.755 28.5497 167.102C28.5034 166.992 28.4605 166.873 28.4175 166.77C27.9613 165.61 27.548 164.433 27.191 163.234C27.0389 162.733 26.8902 162.239 26.7645 161.719C26.7183 161.57 26.6819 161.417 26.6422 161.268C24.7843 153.926 24.5694 146.296 24.5694 138.703C24.5694 137.819 24.5694 136.935 24.5694 136.051C24.5959 132.951 24.6322 129.854 24.6785 126.761C24.6962 125.965 24.7127 125.166 24.7281 124.364C24.7744 122.334 24.8405 120.298 24.9265 118.259C24.9463 117.695 24.9727 117.129 25.0025 116.568C25.0157 116.244 25.0323 115.919 25.0521 115.594C25.1116 114.421 25.1821 113.255 25.2637 112.097Z" fill="#4FB394"/>
<path opacity="0.1" d="M58.8119 61.0469H40.408C43.401 56.3552 46.6697 51.8461 50.1968 47.5435C52.9341 44.176 55.8168 40.8946 58.8119 37.7325V61.0469Z" fill="#4FB394"/>
<path opacity="0.1" d="M58.8119 62.4589V110.679H25.3695C25.3695 110.539 25.3893 110.397 25.4025 110.258C25.4323 109.876 25.462 109.499 25.4951 109.117C25.5282 108.673 25.5711 108.229 25.6141 107.792C25.6571 107.354 25.7001 106.824 25.753 106.343C25.8059 105.863 25.8488 105.375 25.9017 104.895C25.9546 104.414 26.0075 103.933 26.067 103.456C26.1265 102.979 26.1794 102.495 26.2455 102.018C26.2951 101.623 26.3447 101.225 26.4009 100.828C26.477 100.268 26.5563 99.7074 26.6389 99.1506C26.6389 99.0644 26.6654 98.9816 26.6786 98.8987C27.2828 94.8228 28.1038 90.7821 29.1382 86.7941C30.2244 82.6112 31.611 78.5126 33.2871 74.5303C35.0681 70.3578 37.1543 66.323 39.5286 62.4589H58.8119Z" fill="#4FB394"/>
<path opacity="0.1" d="M66.8254 112.097V157.947H138.484V112.097H66.8254ZM66.8254 159.365V198.742C67.2354 198.825 67.6387 198.908 68.0453 198.977C68.5908 199.083 69.1396 199.179 69.6983 199.262L70.0288 199.309C70.247 199.345 70.4685 199.375 70.69 199.401C71.2421 199.481 71.7942 199.541 72.343 199.594C72.6008 199.62 72.8686 199.64 73.1298 199.663L73.7678 199.71C74.1149 199.736 74.4587 199.756 74.8026 199.769C75.0141 199.769 75.2257 199.786 75.4406 199.793C75.6555 199.799 75.7712 199.793 75.9431 199.793H76.5679C76.8522 199.793 77.1365 199.793 77.4175 199.793H77.7812C78.0655 199.793 78.3498 199.793 78.6308 199.766H78.6473C78.8457 199.766 79.0407 199.766 79.2391 199.743C79.2952 199.746 79.3515 199.746 79.4077 199.743C79.573 199.743 79.7383 199.743 79.8969 199.723C79.9344 199.72 79.9719 199.72 80.0093 199.723C80.3763 199.7 80.7466 199.67 81.1201 199.637C81.4937 199.604 81.8474 199.564 82.221 199.524L82.9714 199.431C86.038 199.001 89.0704 198.354 92.0461 197.496C98.734 195.626 105.27 193.011 111.954 191.099C120.589 188.629 130.137 187.413 138.481 190.419V159.365H66.8254ZM138.484 61.0468V0.00656373C130.64 -0.079969 122.816 0.838967 115.204 2.74104C97.0579 7.31177 80.7631 17.2255 66.8254 29.887V61.0434H70.4322V62.4588H66.8254V110.678H138.484V62.4588H85.1864V61.0401L138.484 61.0468ZM230.547 40.4271C226.057 40.268 221.594 38.8461 217.555 36.642C209.839 32.4358 203.67 25.9327 196.78 20.4505C182.466 9.02537 164.713 2.12786 146.501 0.417564V61.0468H248.789L249.043 60.7783L230.547 40.4271ZM239.866 38.7699L249.747 49.6448V35.9094C246.422 36.3304 243.526 37.3082 239.866 38.7566V38.7699ZM249.747 208.52V159.365H228.676C228.623 159.157 228.563 158.944 228.497 158.732C228.56 158.944 228.616 159.157 228.672 159.365H146.501V194.91C147.281 195.49 148.051 196.104 148.815 196.72C149.639 197.396 150.458 198.08 151.271 198.772L152.091 199.451C152.485 199.783 152.885 200.114 153.281 200.429C154.077 201.072 154.878 201.708 155.685 202.338C156.088 202.656 156.493 202.969 156.901 203.276C163.358 208.224 170.169 212.69 177.279 216.637C178.872 217.529 180.482 218.387 182.102 219.226C183.18 219.782 184.265 220.328 185.358 220.863C186.998 221.665 188.651 222.438 190.317 223.183C205.678 230.097 221.922 234.84 238.583 237.276C242.282 237.822 245.996 238.253 249.728 238.569V208.513H250.058L249.747 208.52ZM146.501 62.4588V110.678H249.747V62.4588H146.501ZM146.501 112.09V157.947H249.747V112.097L146.501 112.09ZM257.761 35.8432V51.1894L270.37 37.3115C266.191 36.6199 261.988 36.1304 257.761 35.8432ZM257.761 112.097V157.947H358.178V112.097H257.761ZM357.824 212.156L358.178 159.365H257.761V239.103C264.229 239.372 270.707 239.294 277.166 238.867H277.279C280.364 238.669 283.436 238.386 286.492 238.019H286.562C302.875 236.115 318.825 231.843 333.912 225.338L357.824 212.156ZM377.55 119.628C377.169 118.744 376.778 117.86 376.376 116.976C375.629 115.319 374.843 113.708 374.029 112.1H366.194V157.947H386C385.983 144.96 382.704 131.702 377.55 119.628ZM366.194 159.365V204.774C371.771 199.415 376.489 193.28 379.881 186.266C383.964 177.817 385.831 168.676 385.987 159.362L366.194 159.365ZM366.194 98.7362V110.668H373.295C371.143 106.567 368.772 102.583 366.194 98.7362ZM298.093 44.8421C297.571 44.6399 297.045 44.4377 296.519 44.2455C290.977 42.1918 285.313 40.4849 279.56 39.1345L260.26 60.3673L259.883 60.775L260.131 61.0434H328.821C319.254 54.443 308.939 49.0044 298.093 44.8421ZM330.838 62.4588H259.169L257.761 63.7481V110.678H270.108H358.178V87.9408C350.214 78.2854 341.023 69.7184 330.838 62.4588Z" fill="#4FB394"/>
<path opacity="0.1" d="M58.8119 86.7841V110.678H25.3695C25.3695 110.539 25.3893 110.397 25.4025 110.257C25.4323 109.876 25.462 109.498 25.4951 109.117C25.5282 108.673 25.5711 108.229 25.6141 107.791C25.6571 107.354 25.7001 106.824 25.753 106.343C25.8059 105.862 25.8488 105.375 25.9017 104.895C25.9546 104.414 26.0075 103.933 26.067 103.456C26.1265 102.979 26.1794 102.495 26.2455 102.018C26.2951 101.623 26.3447 101.225 26.4009 100.828C26.477 100.268 26.5563 99.7074 26.6389 99.1505C26.6389 99.0644 26.6654 98.9815 26.6786 98.8986C27.2828 94.8227 28.1038 90.7821 29.1382 86.794L58.8119 86.7841Z" fill="#4FB394"/>
<path opacity="0.1" d="M25.2637 112.097H58.8119V157.947H27.7166C27.6373 158.421 27.558 158.892 27.4687 159.366H58.8119V196.336C58.759 196.336 58.7061 196.296 58.6565 196.276C57.775 195.925 56.8934 195.552 56.0118 195.159C55.8234 195.073 55.6383 194.983 55.4465 194.901C54.5649 194.483 53.6834 194.041 52.8018 193.575C52.4943 193.412 52.1869 193.243 51.8861 193.071C46.9919 190.333 42.5437 186.861 38.6955 182.776C38.5798 182.667 38.474 182.547 38.3649 182.445C37.8294 181.861 37.3037 181.271 36.7946 180.668C36.6029 180.446 36.4178 180.221 36.2293 180.005C35.6277 179.269 35.0458 178.507 34.4838 177.741C34.3979 177.625 34.3185 177.513 34.2359 177.41C31.9336 174.216 30.0244 170.755 28.5497 167.102C28.5034 166.992 28.4605 166.873 28.4175 166.77C27.9613 165.61 27.548 164.433 27.191 163.234C27.0389 162.733 26.8902 162.239 26.7645 161.719C26.7183 161.57 26.6819 161.417 26.6422 161.268C24.7843 153.926 24.5694 146.296 24.5694 138.703C24.5694 137.819 24.5694 136.935 24.5694 136.051C24.5959 132.951 24.6322 129.854 24.6785 126.761C24.6962 125.965 24.7127 125.166 24.7281 124.364C24.7744 122.334 24.8405 120.298 24.9265 118.259C24.9463 117.695 24.9727 117.129 25.0025 116.568C25.0157 116.244 25.0323 115.919 25.0521 115.594C25.1116 114.421 25.1821 113.255 25.2637 112.097Z" fill="#4FB394"/>
<path opacity="0.1" d="M92.0494 69.3663V110.679H66.8221V69.3663H70.4189V55.379H85.1831V69.3663H92.0494Z" fill="#4FB394"/>
<path opacity="0.1" d="M92.0461 112.094H66.8221V157.944H92.0461V112.094Z" fill="#4FB394"/>
<path opacity="0.1" d="M66.8254 159.365H92.0494V197.482C89.074 198.341 86.0415 198.987 82.9747 199.415C82.7235 199.451 82.4755 199.481 82.2243 199.508C81.854 199.551 81.4871 199.59 81.1201 199.624L80.0127 199.713H79.9003L79.411 199.74H79.2424C79.044 199.74 78.849 199.763 78.6506 199.766H78.6341C78.3498 199.766 78.0688 199.786 77.7845 199.793H77.4208C77.1398 199.793 76.8588 199.793 76.5712 199.793H75.9497H75.4439C75.229 199.793 75.0174 199.793 74.8026 199.766C74.4631 199.753 74.1193 199.733 73.7711 199.706L73.1331 199.66C72.8686 199.64 72.6041 199.614 72.343 199.587C71.7876 199.538 71.2366 199.475 70.69 199.398L70.0288 199.305L69.6982 199.259C69.1462 199.176 68.5974 199.083 68.0453 198.977C67.6354 198.904 67.232 198.821 66.8254 198.735V159.365Z" fill="#4FB394"/>
<path opacity="0.1" d="M249.744 64.4873H228.943V110.675H249.744V64.4873Z" fill="#4FB394"/>
<path opacity="0.1" d="M249.747 112.094V157.947H146.501V138.169H201.495V149.836H228.943V112.094H249.747Z" fill="#4FB394"/>
<path opacity="0.1" d="M250.075 208.53C249.966 208.53 249.857 208.53 249.744 208.51V238.589C246.017 238.282 242.304 237.852 238.603 237.3C221.936 234.864 205.686 230.123 190.317 223.213C185.881 221.207 181.535 219.02 177.279 216.654C170.171 212.704 163.362 208.239 156.905 203.293C155.278 202.047 153.676 200.773 152.098 199.471C151.004 198.563 149.919 197.635 148.815 196.737C148.055 196.117 147.284 195.504 146.501 194.92V159.365H228.672C228.613 159.153 228.56 158.945 228.5 158.732C228.563 158.945 228.623 159.153 228.676 159.365H249.747V208.507C249.856 208.51 249.966 208.52 250.075 208.53Z" fill="#4FB394"/>
<path opacity="0.1" d="M303.997 61.0468H290.443V56.8241H296.516V44.2455C297.043 44.4399 297.567 44.6388 298.09 44.8421V56.8241H303.994L303.997 61.0468Z" fill="#4FB394"/>
<path opacity="0.1" d="M336.656 110.679H270.108C270.115 110.68 270.122 110.68 270.128 110.679H270.099H257.761V64.4907H261.259V98.6302H277.239V78.4116H290.446V62.4589H304.001V78.4216H317.201V98.6402H336.659L336.656 110.679Z" fill="#4FB394"/>
<path opacity="0.1" d="M257.761 112.097V157.947H336.659V112.097H257.761ZM358.065 211.914L358.177 175.62H336.659V159.379H257.761V239.103C264.229 239.373 270.707 239.294 277.167 238.868H277.279C280.364 238.669 283.436 238.386 286.492 238.019H286.562C302.875 236.115 318.825 231.843 333.912 225.338" fill="#4FB394"/>
<path opacity="0.1" d="M367.583 159.365H385.987C385.828 168.676 383.964 177.821 379.881 186.266C376.489 193.283 371.771 199.418 366.194 204.778V175.61H367.583V159.365Z" fill="#4FB394"/>
<path opacity="0.1" d="M386 157.947H367.583V119.628H377.55C382.704 131.702 385.984 144.961 386 157.947Z" fill="#4FB394"/>
<path opacity="0.1" d="M249.747 77.3278H238.603V91.8089H249.747V77.3278Z" fill="#4FB394"/>
<path opacity="0.1" d="M249.747 107.344H238.603V110.678H249.747V107.344Z" fill="#4FB394"/>
<path opacity="0.1" d="M249.747 112.094H238.603V121.822H249.747V112.094Z" fill="#4FB394"/>
<path opacity="0.1" d="M249.747 137.36H238.603V151.842H249.747V137.36Z" fill="#4FB394"/>
<path opacity="0.1" d="M249.747 167.377H238.603V181.858H249.747V167.377Z" fill="#4FB394"/>
<path opacity="0.1" d="M249.747 208.506C249.856 208.506 249.966 208.506 250.078 208.53C249.969 208.53 249.86 208.53 249.747 208.51V211.874H238.603V197.393H249.747V208.506Z" fill="#4FB394"/>
<path opacity="0.1" d="M249.747 227.406V238.589C246.018 238.282 242.304 237.852 238.603 237.3V227.406H249.747Z" fill="#4FB394"/>
<path opacity="0.1" d="M194.261 156.883H146.501V157.947H194.261V156.883Z" fill="#4FB394"/>
<path opacity="0.1" d="M194.261 159.362H146.501V163.439H194.261V159.362Z" fill="#4FB394"/>
<path opacity="0.1" d="M194.261 176.803H146.501V183.359H194.261V176.803Z" fill="#4FB394"/>
<path opacity="0.1" d="M194.261 196.723V203.279H156.905C155.278 202.038 153.676 200.763 152.098 199.455C151 198.55 149.916 197.622 148.815 196.723H194.261Z" fill="#4FB394"/>
<path opacity="0.1" d="M194.261 216.64V223.213H190.317C185.881 221.207 181.535 219.02 177.279 216.654L194.261 216.64Z" fill="#4FB394"/>
<path opacity="0.1" d="M286.569 116.539H277.166V125.965H286.569V116.539Z" fill="#4FB394"/>
<path opacity="0.1" d="M82.9979 72.6178H73.5959V82.0443H82.9979V72.6178Z" fill="#4FB394"/>
<path opacity="0.1" d="M82.9979 94.5135H73.5959V103.94H82.9979V94.5135Z" fill="#4FB394"/>
<path opacity="0.1" d="M82.9979 116.409H73.5959V125.836H82.9979V116.409Z" fill="#4FB394"/>
<path opacity="0.1" d="M82.9979 138.302H73.5959V147.728H82.9979V138.302Z" fill="#4FB394"/>
<path opacity="0.1" d="M82.9979 160.197H73.5959V169.624H82.9979V160.197Z" fill="#4FB394"/>
<path opacity="0.1" d="M82.9979 182.093H73.5959V191.52H82.9979V182.093Z" fill="#4FB394"/>
<path opacity="0.1" d="M322.461 116.539H313.059V125.965H322.461V116.539Z" fill="#4FB394"/>
<path opacity="0.1" d="M286.569 139.79H277.166V149.216H286.569V139.79Z" fill="#4FB394"/>
<path opacity="0.1" d="M322.461 139.79H313.059V149.216H322.461V139.79Z" fill="#4FB394"/>
<path opacity="0.1" d="M286.569 163.038H277.166V172.464H286.569V163.038Z" fill="#4FB394"/>
<path opacity="0.1" d="M322.461 163.038H313.059V172.464H322.461V163.038Z" fill="#4FB394"/>
<path opacity="0.1" d="M286.569 186.289H277.166V195.716H286.569V186.289Z" fill="#4FB394"/>
<path opacity="0.1" d="M322.461 186.289H313.059V195.716H322.461V186.289Z" fill="#4FB394"/>
<path opacity="0.1" d="M286.569 209.541H277.166V218.967H286.569V209.541Z" fill="#4FB394"/>
<path opacity="0.1" d="M322.461 209.541H313.059V218.967H322.461V209.541Z" fill="#4FB394"/>
<path opacity="0.1" d="M277.166 238.867V232.789H286.565V238.002L277.166 238.867Z" fill="#4FB394"/>
<path opacity="0.1" d="M26.6389 98.8887V104.281H58.8119V98.8887H26.6389ZM29.8423 103.943H27.1976V99.2301H29.8423V103.943ZM33.0457 103.943H30.401V99.2301H33.0457V103.943ZM36.2426 103.943H33.5978V99.2301H36.2426V103.943ZM39.446 103.943H36.8012V99.2301H39.446V103.943ZM42.6461 103.943H40.0014V99.2301H42.6461V103.943ZM45.8495 103.943H43.2048V99.2301H45.8495V103.943ZM49.0529 103.943H46.4082V99.2301H49.0529V103.943ZM52.253 103.943H49.6083V99.2301H52.253V103.943ZM55.4531 103.943H52.8084V99.2301H55.4531V103.943ZM58.6565 103.943H56.0118V99.2301H58.6565V103.943Z" fill="#4FB394"/>
<path opacity="0.1" d="M26.6389 114.586V119.979H58.8119V114.586H26.6389ZM29.8423 119.641H27.1976V114.928H29.8423V119.641ZM33.0457 119.641H30.401V114.928H33.0457V119.641ZM36.2426 119.641H33.5978V114.928H36.2426V119.641ZM39.446 119.641H36.8012V114.928H39.446V119.641ZM42.6461 119.641H40.0014V114.928H42.6461V119.641ZM45.8495 119.641H43.2048V114.928H45.8495V119.641ZM49.0529 119.641H46.4082V114.928H49.0529V119.641ZM52.253 119.641H49.6083V114.928H52.253V119.641ZM55.4531 119.641H52.8084V114.928H55.4531V119.641ZM58.6565 119.641H56.0118V114.928H58.6565V119.641Z" fill="#4FB394"/>
<path opacity="0.1" d="M26.6389 130.287V135.677H58.8119V130.287H26.6389ZM29.8423 135.335H27.1976V130.622H29.8423V135.335ZM33.0457 135.335H30.401V130.622H33.0457V135.335ZM36.2426 135.335H33.5978V130.622H36.2426V135.335ZM39.446 135.335H36.8012V130.622H39.446V135.335ZM42.6461 135.335H40.0014V130.622H42.6461V135.335ZM45.8495 135.335H43.2048V130.622H45.8495V135.335ZM49.0529 135.335H46.4082V130.622H49.0529V135.335ZM52.253 135.335H49.6083V130.622H52.253V135.335ZM55.4531 135.335H52.8084V130.622H55.4531V135.335ZM58.6565 135.335H56.0118V130.622H58.6565V135.335Z" fill="#4FB394"/>
<path opacity="0.1" d="M26.6389 145.985V151.374H58.8119V145.985H26.6389ZM29.8423 151.036H27.1976V146.316H29.8423V151.036ZM33.0457 151.036H30.401V146.316H33.0457V151.036ZM36.2426 151.036H33.5978V146.316H36.2426V151.036ZM39.446 151.036H36.8012V146.316H39.446V151.036ZM42.6461 151.036H40.0014V146.316H42.6461V151.036ZM45.8495 151.036H43.2048V146.316H45.8495V151.036ZM49.0529 151.036H46.4082V146.316H49.0529V151.036ZM52.253 151.036H49.6083V146.316H52.253V151.036ZM55.4531 151.036H52.8084V146.316H55.4531V151.036ZM58.6565 151.036H56.0118V146.316H58.6565V151.036Z" fill="#4FB394"/>
<path opacity="0.1" d="M26.7943 161.676C26.9199 162.186 27.0687 162.69 27.2208 163.19V162.017H29.8655V166.727H28.4473C28.4869 166.84 28.5299 166.956 28.5762 167.058H58.8252V161.676H26.7943ZM33.0755 166.727H30.4308V162.017H33.0755V166.727ZM36.2723 166.727H33.6276V162.017H36.2723V166.727ZM39.4757 166.727H36.831V162.017H39.4757V166.727ZM42.6758 166.727H40.0311V162.017H42.6758V166.727ZM45.8793 166.727H43.2345V162.017H45.8793V166.727ZM49.0827 166.727H46.438V162.017H49.0827V166.727ZM52.2828 166.727H49.6381V162.017H52.2828V166.727ZM55.4829 166.727H52.8382V162.017H55.4829V166.727ZM58.6863 166.727H56.0416V162.017H58.6863V166.727Z" fill="#4FB394"/>
<path opacity="0.1" d="M34.2458 177.373C34.3317 177.479 34.4111 177.598 34.4937 177.704H36.2426V179.968L36.8079 180.631V177.691H39.4526V182.444H38.3649C38.4707 182.554 38.5732 182.67 38.6955 182.776H58.8053V177.373H34.2458ZM42.6626 182.444H40.0179V177.711H42.6626V182.444ZM45.866 182.444H43.2213V177.711H45.866V182.444ZM49.0694 182.444H46.4247V177.711H49.0694V182.444ZM52.2695 182.444H49.6248V177.711H52.2695V182.444ZM55.4696 182.444H52.8249V177.711H55.4696V182.444ZM58.6731 182.444H56.0283V177.711H58.6731V182.444Z" fill="#4FB394"/>
<path opacity="0.1" d="M51.896 193.071C52.2001 193.243 52.5076 193.402 52.815 193.571V193.406H55.4598V194.9C55.6515 194.983 55.8333 195.073 56.0218 195.159V193.406H58.6665V196.276C58.7168 196.299 58.7687 196.318 58.8219 196.332V193.071H51.896Z" fill="#4FB394"/>
<path opacity="0.1" d="M249.744 208.506H250.075H249.744ZM228.497 158.732C228.56 158.944 228.616 159.157 228.672 159.365C228.623 159.157 228.563 158.944 228.497 158.732ZM70.4322 61.0468V62.4588H85.1996V61.0402L70.4322 61.0468ZM249.747 208.506H250.078H249.747ZM228.497 158.732C228.56 158.944 228.616 159.157 228.672 159.365C228.623 159.157 228.563 158.944 228.497 158.732ZM249.744 208.506H250.075H249.744ZM228.497 158.732C228.56 158.944 228.616 159.157 228.672 159.365C228.623 159.157 228.563 158.944 228.497 158.732Z" fill="#4FB394"/>
<path opacity="0.1" d="M290.731 286C308.521 286 322.943 283.677 322.943 280.813C322.943 277.948 308.521 275.625 290.731 275.625C272.94 275.625 258.518 277.948 258.518 280.813C258.518 283.677 272.94 286 290.731 286Z" fill="#4FB394"/>
<path opacity="0.1" d="M145.45 280.813C163.24 280.813 177.662 278.491 177.662 275.626C177.662 272.761 163.24 270.438 145.45 270.438C127.659 270.438 113.237 272.761 113.237 275.626C113.237 278.491 127.659 280.813 145.45 280.813Z" fill="#4FB394"/>
<path d="M182.535 138.464C182.527 138.431 182.51 138.401 182.486 138.378C181.993 137.891 175.712 128.985 175.712 128.985C175.712 128.985 175.381 127.99 174.846 126.698C175.017 126.475 175.146 126.222 175.226 125.952C175.255 125.837 175.276 125.721 175.289 125.604C175.289 125.567 175.315 125.538 175.325 125.501C175.44 125.052 175.428 124.579 175.292 124.135C175.255 124.249 175.21 124.36 175.156 124.467C175.032 124.081 174.866 123.71 174.661 123.36C173.827 121.921 172.637 120.708 171.761 119.306C170.435 117.128 169.907 114.554 170.27 112.028C170.27 112.157 170.27 112.289 170.27 112.419C170.303 111.918 170.37 111.419 170.469 110.927C170.607 110.367 170.791 109.819 171.021 109.29C171.808 107.483 173.08 105.909 173.854 104.096C174.113 103.484 174.311 102.848 174.442 102.197C174.715 101.109 174.814 99.9845 174.737 98.8656C174.737 99.1307 174.694 99.3959 174.654 99.6577C174.57 96.9674 173.487 94.4056 171.616 92.4752C168.915 89.7539 165.037 88.6966 161.328 88.1398C159.769 87.9574 158.281 87.3878 156.997 86.4825C155.572 85.5578 153.731 85.3357 152.065 85.5379C150.15 85.7455 148.37 86.6275 147.043 88.0271C145.281 89.9694 144.517 92.7204 142.461 94.3578C141.215 95.3522 139.635 95.8162 138.183 96.4924C136.732 97.1685 135.36 98.1496 134.894 99.6014C134.894 99.6014 134.894 99.5815 134.894 99.5716V99.6544L134.874 99.7074C134.391 101.424 135.324 103.171 135.81 104.885C136.315 106.658 136.348 108.531 136.375 110.364C136.411 112.604 136.444 114.848 136.408 117.092C136.391 117.974 136.362 118.865 136.296 119.744C135.513 119.981 134.753 120.287 134.024 120.659C133.284 121.142 130.514 124.142 130.514 124.142L125.095 144.898L125.168 144.98L125.095 145.262L125.37 145.199C126.137 146.028 128.428 148.388 130.9 149.859L131.132 153.93C131.132 153.93 131.409 158.013 135.155 159.7C135.241 161.116 135.509 166.863 134.269 169.14C133.411 170.804 133.007 172.665 133.099 174.536C133.099 174.536 133.532 177.99 133.039 179.806C132.751 181.02 132.73 182.282 132.976 183.505C132.976 183.505 132.976 183.906 132.976 184.596C132.976 188.271 133.019 200.051 132.976 201.384C132.914 202.958 132.976 226.243 132.976 226.243C132.976 226.243 132.669 237.88 131.684 241.032C130.699 244.184 130.947 254.622 130.947 254.622C130.947 254.622 130.328 267.054 132.514 269.507C132.514 269.616 132.494 269.729 132.49 269.838C132.49 269.888 132.49 269.945 132.49 269.994C132.464 270.939 132.646 271.943 133.456 272.251C135.109 272.888 137.294 274.797 137.707 275.344C138.12 275.891 140.524 277.253 143.658 276.888C145.621 276.667 147.597 276.576 149.572 276.617C149.572 276.617 150.808 276.391 150.408 274.85C150.151 273.889 149.185 272.411 148.498 271.439C148.623 271.473 148.746 271.499 148.861 271.522L148.98 271.545H149.073C149.123 271.549 149.174 271.549 149.225 271.545H149.291C149.353 271.551 149.415 271.551 149.476 271.545C150.306 271.466 153.4 272.911 153.952 273.866C154.504 274.82 156.452 275.546 157.919 275.728C158.792 275.834 160.994 275.655 162.842 275.417C163.773 275.32 164.694 275.152 165.599 274.913C166.035 274.747 166.128 274.217 166.002 273.62C165.854 272.863 165.45 272.179 164.859 271.685C164.323 271.303 163.615 270.299 163.093 269.477L162.954 269.255C163.877 268.373 165.543 265.49 166.049 264.893C166.664 264.167 165.057 237.621 165.057 237.621V224.314L167.52 211.718L169.242 205.053L170.72 194.99C170.72 194.99 173.305 183.237 172.508 182.083C172.508 182.06 171.847 169.959 171.153 167.052C170.852 165.756 170.928 162.839 171.107 160.002C171.293 159.816 171.423 159.581 171.482 159.324C171.54 159.067 171.525 158.799 171.437 158.55C171.388 158.38 171.324 158.215 171.246 158.056C171.246 158.007 171.246 157.954 171.246 157.904C172.674 157.245 174.166 156.736 175.699 156.386C178.161 155.902 177.547 154.629 177.547 154.629C177.547 154.629 178.102 153.539 178.469 152.872C178.836 152.206 178.532 146.326 178.469 145.842C178.446 145.647 178.294 144.566 178.118 143.34C178.909 142.776 179.937 142.077 181.057 141.414C183.19 140.148 182.71 138.812 182.535 138.464ZM150.402 222.497C150.402 222.497 148.554 227.224 149.294 228.433C150.035 229.643 149.172 234.134 149.172 234.134L148.554 240.8C148.554 240.8 146.831 253.163 147.446 256.07C147.929 258.35 148.108 265.162 148.164 268.002C148.121 268.019 148.081 268.039 148.041 268.062L147.959 268.105C148.243 266.988 148.124 264.727 146.712 260.18L146.593 241.397C146.593 241.397 146.375 219.7 148.084 217.273C149.794 214.847 150.399 210.727 150.399 210.727C150.399 210.727 150.028 216.67 149.787 218.245C149.546 219.819 150.402 222.497 150.402 222.497ZM146.96 269.186C146.944 269.225 146.924 269.265 146.911 269.302L146.818 269.182C146.865 269.187 146.913 269.188 146.96 269.186Z" fill="url(#paint0_linear)"/>
<path d="M165.807 276.63C164.852 276.998 159.672 277.624 158.224 277.449C156.776 277.273 154.858 276.537 154.313 275.576C153.767 274.615 150.709 273.163 149.889 273.256C149.553 273.266 149.218 273.219 148.898 273.117C148.332 272.945 147.78 272.732 147.245 272.48C147.17 272.062 147.182 271.633 147.281 271.221C147.3 271.137 147.324 271.055 147.354 270.975C147.547 270.432 147.946 269.986 148.465 269.736L148.584 269.679C148.813 269.58 149.052 269.507 149.298 269.461C151.896 268.96 162.617 269.964 162.617 269.964C162.617 269.964 162.918 270.505 163.331 271.174C163.847 272.003 164.548 273.014 165.077 273.395C165.663 273.897 166.06 274.585 166.204 275.344C166.33 275.931 166.237 276.467 165.807 276.63Z" fill="white"/>
<path opacity="0.1" d="M165.807 276.63C164.852 276.998 159.675 277.624 158.227 277.448C156.779 277.273 154.861 276.534 154.313 275.576C153.764 274.618 150.713 273.163 149.893 273.256C149.073 273.348 147.248 272.48 147.248 272.48C147.248 272.48 146.964 271.154 147.79 270.249L149.443 271.426C149.443 271.426 153.866 272.801 154.686 274.078C155.506 275.354 157 276.066 159.159 276.196C160.772 276.302 164.478 275.672 166.214 275.357C166.33 275.93 166.24 276.467 165.807 276.63Z" fill="black"/>
<path d="M149.982 278.32C148.032 278.282 146.082 278.374 144.144 278.595C141.04 278.96 138.669 277.601 138.256 277.041C137.843 276.481 135.704 274.588 134.061 273.925C133.257 273.614 133.069 272.599 133.105 271.651C133.105 271.602 133.105 271.545 133.105 271.496C133.136 270.895 133.224 270.299 133.37 269.716L146.233 269.441L147.347 270.955L147.519 271.187L148.197 272.112C148.197 272.112 148.504 272.517 148.908 273.107C149.589 274.101 150.541 275.569 150.795 276.54C151.202 278.095 149.982 278.32 149.982 278.32Z" fill="white"/>
<path opacity="0.1" d="M149.982 278.32C148.032 278.282 146.082 278.374 144.144 278.595C141.043 278.96 138.669 277.601 138.259 277.041C137.849 276.481 135.704 274.571 134.061 273.932C133.257 273.62 133.069 272.606 133.105 271.658C134.024 271.873 135.955 272.424 136.712 273.382C137.704 274.661 139.479 276.812 142.002 276.948C144.038 277.057 148.997 276.693 150.815 276.547C151.205 278.095 149.982 278.32 149.982 278.32Z" fill="black"/>
<path opacity="0.1" d="M148.451 269.722C148.303 270.829 147.843 271.128 147.512 271.194C147.432 271.21 147.349 271.21 147.268 271.194C147.224 271.191 147.181 271.184 147.139 271.174C147.139 271.174 135.588 273.733 133.254 271.661C133.195 271.608 133.14 271.55 133.089 271.489C133.119 270.888 133.208 270.292 133.353 269.709L146.217 269.434L147.331 270.949C147.524 270.405 147.923 269.959 148.441 269.709L148.451 269.722Z" fill="black"/>
<path opacity="0.1" d="M163.328 271.161C163.07 271.446 162.855 271.608 162.72 271.552C162.111 271.307 157.126 270.455 155.543 271.187C153.959 271.92 148.6 271.307 148.6 271.307C148.6 271.307 148.6 270.67 148.57 269.65C148.8 269.55 149.039 269.477 149.284 269.431C151.883 268.93 162.604 269.935 162.604 269.935C162.604 269.935 162.918 270.491 163.328 271.161Z" fill="black"/>
<path d="M170.872 196.187L169.411 206.309L167.712 213.018L165.278 225.699V239.123C165.278 239.123 166.859 265.831 166.25 266.561C165.642 267.29 163.331 271.443 162.723 271.201C162.115 270.959 157.129 270.104 155.546 270.833C153.962 271.562 148.603 270.956 148.603 270.956C148.603 270.956 148.481 260.591 147.873 257.664C147.265 254.738 148.967 242.298 148.967 242.298L149.575 235.593C149.575 235.593 150.428 231.079 149.698 229.859C148.967 228.639 150.792 223.893 150.792 223.893C150.792 223.893 149.942 221.205 150.187 219.62C150.432 218.036 150.792 212.06 150.792 212.06C150.792 212.06 150.187 216.21 148.498 218.646C146.808 221.082 147.023 242.915 147.023 242.915L147.142 261.807C150.187 271.811 147.142 270.833 147.142 270.833C147.142 270.833 135.591 273.395 133.257 271.32C130.923 269.245 131.591 256.186 131.591 256.186C131.591 256.186 131.35 245.699 132.322 242.53C133.294 239.362 133.601 227.651 133.601 227.651C133.601 227.651 133.538 204.234 133.601 202.653C133.648 201.327 133.601 189.458 133.601 185.749C133.601 185.06 133.601 184.652 133.601 184.652L134.996 181.178L151.526 179.104H159.434C159.434 179.104 171.335 181.908 172.565 183.117C172.591 183.138 172.613 183.162 172.631 183.19C173.427 184.36 170.872 196.187 170.872 196.187Z" fill="#4FB394"/>
<path opacity="0.1" d="M150.802 249.358C150.802 249.358 154.438 258.138 156.154 258.748C157.87 259.358 150.802 249.358 150.802 249.358Z" fill="black"/>
<path opacity="0.1" d="M152.147 262.285C152.147 262.285 164.425 262.895 164.303 264.237C164.181 265.579 152.147 262.285 152.147 262.285Z" fill="black"/>
<path opacity="0.1" d="M135.72 258.774C136.206 259.235 145.086 260.1 144.355 260.942C143.625 261.784 136.451 263.421 136.451 263.421L135.72 258.774Z" fill="black"/>
<path opacity="0.1" d="M134.262 243.627C134.262 243.992 136.087 255.334 136.577 255.821C137.066 256.309 141.076 256.796 141.076 256.796L134.262 243.627Z" fill="black"/>
<path d="M147.503 88.5938C145.76 90.5461 145.007 93.3137 142.977 94.9643C141.744 95.9587 140.183 96.4327 138.749 97.1088C137.314 97.785 135.892 98.8158 135.466 100.347C134.99 102.071 135.909 103.831 136.391 105.554C136.891 107.337 136.92 109.2 136.95 111.066C136.983 113.323 137.02 115.581 136.98 117.838C136.92 121.355 136.629 125.034 134.768 128.013C141.489 130.158 148.637 130.45 155.685 130.725C157.039 130.822 158.4 130.787 159.748 130.622C160.916 130.389 162.071 130.095 163.209 129.744C165.459 129.147 167.778 128.849 170.105 128.859C171.12 128.859 172.155 128.922 173.133 128.656C174.112 128.391 175.054 127.712 175.318 126.731C175.553 125.849 175.209 124.911 174.76 124.119C173.94 122.674 172.776 121.467 171.897 120.042C170.999 118.537 170.467 116.841 170.342 115.091C170.217 113.342 170.504 111.587 171.179 109.969C171.96 108.149 173.216 106.565 173.983 104.742C174.768 102.785 174.977 100.643 174.585 98.5699C174.192 96.4971 173.214 94.5808 171.768 93.0485C169.1 90.3107 165.272 89.2501 161.609 88.6866C160.067 88.504 158.595 87.9339 157.331 87.0294C155.926 86.1013 154.104 85.8759 152.458 86.0814C150.559 86.2948 148.8 87.1867 147.503 88.5938Z" fill="#3F3D56"/>
<g opacity="0.1">
<path opacity="0.1" d="M171.282 108.057C170.608 109.654 170.319 111.388 170.439 113.118C170.513 111.881 170.798 110.666 171.282 109.525C172.059 107.705 173.315 106.121 174.082 104.298C174.709 102.776 174.973 101.128 174.852 99.4854C174.784 100.637 174.524 101.768 174.082 102.833C173.315 104.656 172.059 106.237 171.282 108.057Z" fill="black"/>
<path opacity="0.1" d="M137.049 110.615C137.069 111.915 137.089 113.217 137.092 114.517C137.092 112.727 137.076 110.94 137.049 109.154C137.023 107.301 136.99 105.425 136.491 103.638C136.16 102.505 135.671 101.355 135.499 100.211C135.205 101.835 136.041 103.483 136.491 105.103C136.99 106.873 137.023 108.763 137.049 110.615Z" fill="black"/>
<path opacity="0.1" d="M173.246 126.761C172.254 127.029 171.236 126.969 170.221 126.963C167.895 126.948 165.578 127.24 163.328 127.831C162.19 128.181 161.034 128.473 159.867 128.706C158.518 128.874 157.156 128.91 155.8 128.812C148.99 128.544 142.084 128.255 135.562 126.303C135.368 126.737 135.147 127.157 134.9 127.563C141.621 129.704 148.769 129.999 155.814 130.274C157.169 130.371 158.531 130.336 159.88 130.168C161.043 129.937 162.194 129.646 163.328 129.296C165.573 128.703 167.886 128.407 170.207 128.418C171.222 128.418 172.254 128.481 173.232 128.212C174.211 127.944 175.153 127.271 175.418 126.29C175.529 125.835 175.518 125.36 175.384 124.911C175.09 125.839 174.181 126.485 173.246 126.761Z" fill="black"/>
</g>
<path d="M163.454 122.833C163.209 123.383 162.177 128.136 161.933 128.623C161.688 129.111 160.353 136.91 160.23 137.347C160.108 137.785 151.427 135.517 151.427 135.517L146.2 131.126L140.828 125.766C140.828 125.766 140.669 120.93 144.626 119.379C144.895 119.273 145.172 119.187 145.453 119.121C150.253 117.964 149.77 103.33 149.77 103.33L159.622 107.596C159.622 107.596 157.797 116.134 157.86 117.782C157.876 118.335 158.31 118.68 158.875 118.889C159.749 119.138 160.659 119.236 161.566 119.18C161.566 119.18 163.698 122.286 163.454 122.833Z" fill="#FBBEBE"/>
<path d="M181.09 138.868L182.489 139.236C182.489 139.236 183.524 140.814 181.09 142.282C179.546 143.223 178.063 144.263 176.651 145.395L169.46 147.589L168.075 143.23L174.766 138.139L181.09 138.868Z" fill="#4FB394"/>
<path opacity="0.1" d="M181.09 138.868L182.489 139.236C182.489 139.236 183.524 140.814 181.09 142.282C179.546 143.223 178.063 144.263 176.651 145.395L169.46 147.589L168.075 143.23L174.766 138.139L181.09 138.868Z" fill="black"/>
<path d="M128.616 143.078L125.819 145.822C125.819 145.822 130.864 151.676 134.745 152.04C138.626 152.405 141.129 147.589 141.129 147.589L137.77 142.286L128.616 143.078Z" fill="#4FB394"/>
<path opacity="0.1" d="M128.616 143.078L125.819 145.822C125.819 145.822 130.864 151.676 134.745 152.04C138.626 152.405 141.129 147.589 141.129 147.589L137.77 142.286L128.616 143.078Z" fill="black"/>
<path opacity="0.1" d="M155.182 112.893C160.556 112.893 164.911 108.525 164.911 103.138C164.911 97.7506 160.556 93.3833 155.182 93.3833C149.809 93.3833 145.453 97.7506 145.453 103.138C145.453 108.525 149.809 112.893 155.182 112.893Z" fill="black"/>
<path d="M155.182 112.16C160.556 112.16 164.911 107.793 164.911 102.405C164.911 97.0181 160.556 92.6508 155.182 92.6508C149.809 92.6508 145.453 97.0181 145.453 102.405C145.453 107.793 149.809 112.16 155.182 112.16Z" fill="#FBBEBE"/>
<path opacity="0.1" d="M172.637 184.297C170.422 184.551 168.24 185.041 166.128 185.759C162.492 186.972 133.995 185.779 133.598 185.759C133.598 185.069 133.598 184.662 133.598 184.662L134.993 181.188L151.523 179.113H159.43C159.43 179.113 171.331 181.917 172.561 183.127C172.611 183.856 172.637 184.297 172.637 184.297Z" fill="black"/>
<path opacity="0.1" d="M163.454 122.833C163.209 123.383 162.177 128.136 161.933 128.623C161.688 129.111 160.353 136.91 160.23 137.347C160.108 137.785 151.427 135.518 151.427 135.518L146.2 131.126L140.828 125.766C140.828 125.766 140.669 120.93 144.626 119.379L154.452 130.705L158.875 118.889C159.749 119.138 160.659 119.236 161.566 119.18C161.566 119.18 163.698 122.286 163.454 122.833Z" fill="black"/>
<path d="M154.452 131.069L144.395 119.469C143.806 119.092 143.134 118.868 142.437 118.816C141.741 118.765 141.042 118.887 140.405 119.174C138.153 120.151 135.357 120.943 134.626 121.431C133.895 121.918 131.158 124.934 131.158 124.934L139.311 146.316L135.72 160.4C135.72 160.4 136.269 167.595 134.871 170.217C134.019 171.893 133.62 173.764 133.714 175.643C133.714 175.643 134.14 179.12 133.654 180.946C133.37 182.167 133.349 183.435 133.591 184.665C133.591 184.665 162.482 185.885 166.128 184.665C168.239 183.946 170.422 183.456 172.637 183.203C172.637 183.203 171.976 171.006 171.315 168.079C170.654 165.153 171.864 153.996 171.864 153.996L171.074 142.044L175.814 129.78C175.814 129.78 173.246 121.918 170.568 121.126C170.568 121.126 165.705 119.966 164.67 119.419C163.635 118.872 160.594 118.381 160.594 118.381L158.997 118.918L154.452 131.069Z" fill="#4FB394"/>
<path opacity="0.1" d="M168.483 141.64L147.321 140.197C146.785 140.161 146.322 140.567 146.285 141.104L144.013 174.602C143.977 175.139 144.381 175.604 144.917 175.641L166.079 177.083C166.614 177.12 167.078 176.714 167.114 176.177L169.386 142.678C169.423 142.142 169.018 141.677 168.483 141.64Z" fill="black"/>
<path d="M169.211 140.913L148.049 139.47C147.514 139.434 147.05 139.839 147.014 140.376L144.742 173.875C144.706 174.412 145.11 174.877 145.646 174.913L166.807 176.356C167.343 176.392 167.807 175.987 167.843 175.45L170.115 141.951C170.151 141.414 169.747 140.949 169.211 140.913Z" fill="#3F3D56"/>
<path d="M168.513 143.539L148.387 142.167L146.318 172.663L166.445 174.035L168.513 143.539Z" fill="white"/>
<path opacity="0.1" d="M166.708 151.323L150.268 150.169L149.947 154.763L166.388 155.916L166.708 151.323Z" fill="black"/>
<path opacity="0.1" d="M166.113 169.578L163.504 169.401L163.342 171.795L165.951 171.973L166.113 169.578Z" fill="black"/>
<path opacity="0.1" d="M163.54 163.8L150.185 162.89L150.023 165.284L163.378 166.194L163.54 163.8Z" fill="black"/>
<path d="M166.022 142.398L152.116 141.45L151.867 145.131L165.772 146.079L166.022 142.398Z" fill="#3F3D56"/>
<path opacity="0.1" d="M166.022 142.398L152.116 141.45L151.867 145.131L165.772 146.079L166.022 142.398Z" fill="black"/>
<path opacity="0.1" d="M155.668 183.625C155.668 183.625 155.546 201.675 150.802 212.04C150.802 212.04 156.521 198.381 156.521 197.834C156.521 197.287 159.682 191.553 158.835 189.846C157.989 188.139 155.668 183.625 155.668 183.625Z" fill="black"/>
<path opacity="0.1" d="M155.926 99.966C155.744 98.3683 156.134 96.7578 157.027 95.4217C156.921 96.7609 157.298 98.0937 158.091 99.1768C158.884 100.26 160.038 101.021 161.344 101.322C161.233 101.225 161.153 101.096 161.116 100.953C161.079 100.81 161.086 100.659 161.136 100.519C161.814 101.288 162.333 102.2 163.1 102.876C163.867 103.552 165.017 103.957 165.92 103.476C167.146 102.813 167.159 101.066 166.842 99.7074C166.161 96.8133 164.764 94.138 162.779 91.9282C162.284 91.2603 161.641 90.7164 160.901 90.3392C160.162 89.9619 159.345 89.7616 158.515 89.7539C156.637 89.6081 154.686 89.7738 153.004 90.619C152.057 91.1371 151.17 91.7584 150.359 92.4718L145.731 96.257C145.285 96.5787 144.904 96.9811 144.607 97.4436C144.408 97.8302 144.289 98.2529 144.256 98.6865C144.138 99.9262 144.367 101.174 144.917 102.291C145.467 103.407 146.317 104.348 147.37 105.007C147.348 104.028 147.617 103.063 148.142 102.237C148.668 101.411 149.427 100.76 150.322 100.367C150.463 100.485 150.576 100.631 150.656 100.796C150.735 100.961 150.778 101.142 150.782 101.325L151.757 99.5815C151.902 99.2642 152.131 98.9926 152.418 98.7959C153.02 98.4645 153.771 98.8556 154.283 99.3229C154.795 99.7903 155.295 100.374 155.982 100.447L156.009 97.8513" fill="black"/>
<path d="M155.926 99.6013C155.744 98.0026 156.134 96.3909 157.027 95.0538C156.729 97.7054 158.723 100.443 161.348 100.954C161.236 100.857 161.156 100.73 161.119 100.587C161.082 100.444 161.089 100.293 161.139 100.155C161.817 100.924 162.336 101.832 163.103 102.511C163.87 103.191 165.021 103.592 165.923 103.108C167.15 102.445 167.163 100.698 166.845 99.3428C166.164 96.4487 164.767 93.7733 162.782 91.5636C162.167 90.8111 161.391 90.2063 160.511 89.7937C159.875 89.5576 159.206 89.4212 158.528 89.3893C156.65 89.2435 154.7 89.4059 153.017 90.2511C152.071 90.7715 151.184 91.3939 150.372 92.1072L145.744 95.8924C145.298 96.2132 144.916 96.6159 144.62 97.079C144.421 97.4654 144.302 97.8882 144.269 98.3219C144.151 99.5611 144.38 100.809 144.93 101.925C145.481 103.041 146.33 103.981 147.384 104.639C147.362 103.66 147.631 102.696 148.157 101.87C148.682 101.044 149.441 100.393 150.336 99.9991C150.476 100.117 150.589 100.264 150.668 100.429C150.747 100.594 150.791 100.774 150.795 100.957L151.767 99.2202C151.911 98.9024 152.14 98.6306 152.428 98.4346C153.03 98.1032 153.78 98.4943 154.293 98.9616C154.805 99.429 155.305 100.009 155.992 100.085L156.019 97.4867" fill="#3F3D56"/>
<path d="M160.534 161.129C159.685 160.698 145.635 162.895 145.635 162.895C145.635 162.895 143.321 162.232 137.727 161.311C132.133 160.39 131.776 154.907 131.776 154.907L131.165 143.933L133.053 142.276L141.139 147.579C141.139 147.579 141.264 150.26 141.139 150.744C141.059 151.076 140.848 151.47 140.868 151.739C140.874 151.811 140.904 151.88 140.953 151.934C141.002 151.988 141.067 152.024 141.139 152.037C141.688 152.176 149.165 153.389 149.165 153.389C149.165 153.389 166.498 152.199 170.819 158.053C171.161 158.483 171.42 158.973 171.583 159.498C172.654 163.499 161.305 161.51 160.534 161.129Z" fill="#FBBEBE"/>
<path opacity="0.1" d="M171.593 159.521C170.931 159.816 170.522 160.028 170.522 160.028C170.522 160.028 164.32 159.846 160.835 158.58C157.351 157.314 153.116 157.539 153.116 157.539C153.116 157.539 138.596 155.033 140.848 151.762C140.854 151.835 140.884 151.903 140.933 151.957C140.982 152.011 141.047 152.047 141.119 152.06C141.668 152.199 149.146 153.412 149.146 153.412C149.146 153.412 166.478 152.223 170.799 158.076C171.152 158.503 171.421 158.994 171.593 159.521Z" fill="black"/>
<path d="M177.623 140.211C177.623 140.211 178.476 146.247 178.535 146.737C178.595 147.228 178.902 153.137 178.535 153.81C178.168 154.483 177.623 155.577 177.623 155.577C177.623 155.577 178.231 156.856 175.798 157.347C173.365 157.837 170.508 159.296 170.508 159.296C170.508 159.296 164.303 159.113 160.839 157.834C157.374 156.555 153.116 156.797 153.116 156.797C153.116 156.797 134.686 153.625 142.593 149.753C150.501 145.882 156.095 151.126 156.095 151.126L164.911 150.579C164.911 150.579 168.197 148.563 169.11 148.749C169.754 148.831 170.409 148.725 170.994 148.444L171.057 142.04L177.623 140.211Z" fill="#FBBEBE"/>
<path opacity="0.1" d="M132.914 125.395L131.148 125.302L125.799 146.184C125.799 146.184 131.575 144.719 134.064 146.184C136.553 147.649 141.119 147.95 141.119 147.95L139.416 131.305L132.914 125.395Z" fill="black"/>
<path d="M132.914 125.027L131.148 124.934L125.799 145.816C125.799 145.816 131.575 144.351 134.064 145.816C136.553 147.281 141.119 147.582 141.119 147.582L139.416 130.937L132.914 125.027Z" fill="#4FB394"/>
<path opacity="0.1" d="M173.368 129.601L175.798 130.151C175.798 130.151 182.003 139.1 182.489 139.601C182.975 140.101 180.175 141.921 179.021 141.921C177.867 141.921 172.211 142.584 170.568 144.115C168.925 145.647 169.609 137.94 169.609 137.765C169.609 137.589 171.649 132.727 171.649 132.727L173.368 129.601Z" fill="black"/>
<path d="M173.368 129.237L175.798 129.783C175.798 129.783 182.003 138.749 182.489 139.236C182.975 139.724 180.175 141.557 179.021 141.557C177.867 141.557 172.211 142.22 170.568 143.751C168.925 145.282 169.609 137.576 169.609 137.4C169.609 137.225 171.662 132.346 171.662 132.346L173.368 129.237Z" fill="#4FB394"/>
<g opacity="0.1">
<path opacity="0.1" d="M157.01 95.0836C156.996 94.8295 157.002 94.5746 157.027 94.3213C156.523 95.0785 156.177 95.9296 156.009 96.8237V97.5927C156.009 97.5927 156.009 97.5762 156.009 97.5662V97.7485C156.009 98.2855 156.009 98.8257 155.992 99.3627H155.946V99.6113C155.946 99.5251 155.946 99.4422 155.929 99.356C155.268 99.25 154.795 98.6931 154.303 98.249C153.81 97.8049 153.04 97.3806 152.438 97.722C152.15 97.9179 151.921 98.1897 151.777 98.5075L150.795 100.244C150.791 100.062 150.748 99.8819 150.668 99.7172C150.589 99.5526 150.476 99.4068 150.336 99.2898C149.44 99.6826 148.681 100.333 148.156 101.16C147.63 101.986 147.361 102.95 147.384 103.93C146.48 103.363 145.725 102.588 145.179 101.67C144.634 100.752 144.314 99.7166 144.246 98.6501C144.189 99.8409 144.449 101.026 145.001 102.082C145.552 103.138 146.375 104.028 147.384 104.659C147.362 103.68 147.631 102.716 148.157 101.89C148.682 101.064 149.441 100.412 150.336 100.019C150.475 100.137 150.589 100.283 150.668 100.448C150.747 100.614 150.791 100.794 150.795 100.977L151.767 99.24C151.911 98.9222 152.14 98.6504 152.428 98.4545C153.03 98.123 153.78 98.5142 154.293 98.9815C154.805 99.4489 155.304 100.029 155.992 100.105C155.992 99.2566 156.001 98.4103 156.019 97.5662C156.181 96.6807 156.518 95.8366 157.01 95.0836Z" fill="black"/>
<path opacity="0.1" d="M155.893 98.4213C155.909 98.196 155.936 97.9706 155.969 97.7584L156.005 96.8436C155.906 97.3632 155.868 97.8928 155.893 98.4213Z" fill="black"/>
<path opacity="0.1" d="M165.923 102.376C165.021 102.86 163.87 102.455 163.103 101.779C162.336 101.103 161.817 100.191 161.139 99.4224C161.089 99.5615 161.082 99.7126 161.119 99.8558C161.157 99.999 161.236 100.128 161.348 100.224C161.282 100.224 161.219 100.191 161.156 100.175C161.817 100.937 162.343 101.832 163.103 102.495C163.863 103.158 165.021 103.575 165.923 103.092C166.826 102.608 167.083 101.474 167.004 100.37C166.945 101.239 166.634 101.991 165.923 102.376Z" fill="black"/>
<path opacity="0.1" d="M161.136 100.168C160.031 99.866 159.044 99.2323 158.307 98.352C157.571 97.4717 157.121 96.3868 157.017 95.2427C156.829 97.8446 158.786 100.453 161.348 100.954C161.239 100.859 161.16 100.733 161.122 100.593C161.085 100.453 161.09 100.305 161.136 100.168Z" fill="black"/>
</g>
<path d="M319.899 154.341C319.899 154.341 318.596 154.158 318.596 152.259C318.596 150.36 317.664 146.803 317.664 146.803C317.664 146.803 316.857 140.615 315.743 139.634C314.629 138.653 313.197 132.892 313.197 132.892C313.197 132.892 312.953 129.767 312.454 129.094C311.954 128.421 311.28 126.774 310.285 124.424C309.29 122.074 305.151 120.463 305.151 120.463C305.151 120.463 297.65 116.101 295.524 114.679C295.33 114.561 295.148 114.424 294.982 114.268C294.612 113.784 292.998 113.774 292.998 113.774C292.83 112.704 292.668 111.477 292.615 110.367C292.615 110.248 292.615 110.128 292.615 110.009C294.985 108.604 296.771 106.389 297.643 103.771C297.683 103.645 297.716 103.516 297.752 103.387C297.897 103.342 298.031 103.266 298.145 103.166C298.259 103.065 298.351 102.942 298.414 102.803C298.602 102.376 298.609 101.878 298.847 101.477C299.124 101.007 299.653 100.755 300.07 100.403C301.121 99.5052 301.392 97.9971 301.343 96.6282C301.309 95.5145 301.131 94.3942 301.2 93.2905C301.2 93.1977 301.2 93.1049 301.22 93.0121C301.24 92.8497 301.263 92.6806 301.293 92.5215C301.455 91.6995 301.809 90.9239 302.007 90.1086C302.205 89.2932 302.225 88.3751 301.762 87.6724C301.085 86.6416 299.673 86.4361 298.433 86.3466C297.028 86.2273 295.789 86.3797 294.873 85.2097C294.453 84.5986 293.979 84.0263 293.458 83.4994C293.273 83.3271 291.474 82.2233 291.474 82.1537C289.715 81.3335 287.719 81.1792 285.854 81.7195C284.919 81.9913 284.043 82.4355 283.094 82.6575C281.058 83.1414 278.71 82.6178 276.978 83.7878C276.013 84.4507 275.434 85.508 274.892 86.5322C274.451 87.3763 274.004 88.2215 273.55 89.0678C272.816 90.4566 272.075 91.8686 271.768 93.4065C271.704 93.7424 271.663 94.0824 271.646 94.4241C271.646 94.5467 271.646 94.6693 271.646 94.792C271.646 94.845 271.646 94.898 271.646 94.9511C271.646 95.0638 271.646 95.1765 271.666 95.2825C271.685 95.3886 271.666 95.4184 271.689 95.488C271.712 95.5576 271.718 95.7134 271.738 95.8195C271.758 95.9255 271.798 96.1145 271.837 96.257C271.837 96.32 271.877 96.3796 271.897 96.4426C271.917 96.5056 271.97 96.6647 272.013 96.7741C272.056 96.8834 272.059 96.8901 272.085 96.9464C272.135 97.0624 272.194 97.1751 272.254 97.2779C272.28 97.321 272.3 97.364 272.327 97.4071C272.417 97.5623 272.519 97.7107 272.631 97.8513C273.335 98.7363 274.38 99.2997 275.15 100.128C275.15 100.162 275.15 100.195 275.15 100.228C275.15 100.317 275.15 100.407 275.15 100.5C275.197 102.348 275.694 104.156 276.597 105.768C277.501 107.38 278.783 108.746 280.334 109.747C280.334 109.873 280.35 110.002 280.357 110.132C280.421 111.114 280.409 112.101 280.32 113.082C280.185 112.923 280.017 112.797 279.827 112.712C279.637 112.627 279.431 112.586 279.223 112.591C279.081 112.584 278.938 112.596 278.8 112.627L278.77 112.604V112.634C278.043 112.813 277.147 113.572 276.29 115.73C276.29 115.73 273.685 118.673 271.702 118.55C269.718 118.428 264.697 121.616 264.697 121.616C264.697 121.616 259.797 124.802 258.746 128.05C258.158 129.892 257.453 131.695 256.634 133.446L250.561 145.948L249.447 155.892C249.447 155.892 250.065 160.303 249.942 160.98C249.82 161.656 252.485 167.721 252.485 167.721C252.485 167.721 261.288 183.227 264.885 184.022L265.143 183.843C265.298 183.921 265.461 183.981 265.629 184.022L266.369 183.502C266.415 184.084 266.395 184.67 266.31 185.249C265.817 186.783 266.498 196.773 267.365 198.732C268.231 200.691 267.923 226.378 267.923 226.378L267.801 228.642C267.801 228.642 267.801 228.715 267.831 228.841L267.801 229.378L267.89 229.424C267.983 230.145 267.953 230.875 267.801 231.586C267.49 232.58 267.365 235.387 267.365 235.387C267.365 235.387 264.885 251.257 266.062 254.446C267.239 257.634 268.234 261.128 268.234 261.128C268.234 261.128 269.474 265.105 268.293 265.768C267.113 266.431 263.771 267.608 264.452 269.262C265.08 270.793 267.464 274.896 267.817 275.496L267.788 275.828L267.302 281.108C267.38 281.805 267.569 282.485 267.86 283.123C268.393 284.276 269.424 285.466 271.394 285.337C271.725 285.314 272.105 285.277 272.479 285.228C276.079 284.74 280.509 283.13 280.509 283.13C280.279 282.984 280.069 282.809 279.884 282.609C279.707 282.437 279.567 282.231 279.472 282.003C279.377 281.775 279.329 281.53 279.332 281.283C279.385 280.319 277.59 275.742 277.14 274.611L277.038 274.359C277.038 274.359 281.13 270.067 280.449 266.269C280.449 266.269 275.92 263.617 277.411 262.159C278.902 260.7 281.567 256.524 281.567 256.524C281.567 256.524 281.689 240.896 281.567 238.566C281.439 236.945 281.516 235.315 281.795 233.713C281.844 233.475 281.904 233.239 281.967 233.004C284.03 233.316 286.114 233.475 288.202 233.478C288.964 233.478 289.736 233.463 290.516 233.432C290.516 233.653 290.526 233.891 290.545 234.148C290.717 238.019 291.038 244.81 291.299 247.333C291.669 250.946 293.716 260.694 293.716 260.694C293.716 260.694 289.812 263.203 294.397 269.398C294.397 269.398 294.397 271.638 294.093 271.966C293.768 273.029 293.506 274.111 293.309 275.205C293.117 276.368 293.038 277.551 293.349 278.161C294.093 279.626 298.556 279.507 298.556 279.507C298.592 279.498 298.628 279.493 298.665 279.49C299.507 279.401 300.359 279.481 301.17 279.726C301.981 279.971 302.736 280.375 303.389 280.916C305.085 282.281 311.518 281.685 315.006 281.247C316.371 281.071 317.284 280.916 317.284 280.916C317.327 280.761 317.343 280.599 317.33 280.438C317.294 279.58 316.622 277.697 312.073 276.017C312.073 276.017 307.796 273.133 307.855 270.621H307.759H307.267C307.577 270.611 307.796 270.611 307.796 270.611C307.796 270.611 306.12 264.482 306.804 263.982C307.488 263.481 305.439 256.69 305.439 256.69C305.439 256.69 304.265 245.288 304.199 244.492C304.203 243.807 304.308 243.125 304.51 242.47L304.199 236.216C304.199 236.216 304.139 234.138 304.199 233.462C304.192 232.875 304.146 232.289 304.06 231.708C304.03 231.476 304 231.234 303.967 230.996C305.571 230.588 306.612 230.213 306.612 230.213L306.427 208.453C307.789 205.802 308.04 199.982 308.034 195.858C308.034 193.207 307.915 191.245 307.915 191.245L309.776 188.198C309.776 188.198 310.206 184.552 309.525 183.754C309.224 183.392 309.359 183.018 309.607 182.71C309.738 182.602 309.876 182.505 310.021 182.418C310.004 182.395 309.99 182.37 309.978 182.345C310.107 182.236 310.246 182.138 310.391 182.05C310.391 182.05 309.73 181.023 310.321 180.588C310.877 180.966 311.373 181.268 311.75 181.483C311.723 181.725 311.697 181.864 311.697 181.864L311.855 181.533C312.219 181.738 312.44 181.864 312.44 181.864C312.44 181.864 315.356 176.041 315.293 175.186C315.231 174.331 317.277 170.711 317.277 170.711C317.277 170.711 317.525 168.809 318.642 168.013C319.76 167.218 319.508 161.454 319.508 161.454C319.508 161.454 319.819 158.451 320.563 157.228C321.307 156.005 319.899 154.341 319.899 154.341ZM264.108 151.785L264.164 153.174C263.834 152.64 263.596 152.259 263.596 152.259L264.108 151.785Z" fill="url(#paint1_linear)"/>
<path d="M312.612 179.345L311.898 182.395C311.898 182.395 306.179 179.461 305.151 175.749C304.123 172.037 306.873 170.622 306.873 170.622L312.206 172.882L312.612 179.345Z" fill="white"/>
<path opacity="0.1" d="M312.612 179.345L311.898 182.395C311.898 182.395 306.179 179.461 305.151 175.749C304.123 172.037 306.873 170.622 306.873 170.622L312.206 172.882L312.612 179.345Z" fill="black"/>
<path d="M280.515 283.126C280.515 283.126 275.226 285.075 271.589 285.321C269.659 285.45 268.644 284.263 268.122 283.12C267.838 282.489 267.653 281.818 267.573 281.131L268.052 275.877L268.303 273.083L276.029 271.068L277.124 274.426L277.226 274.678C277.662 275.801 279.428 280.355 279.375 281.307C279.371 281.553 279.416 281.797 279.509 282.025C279.601 282.253 279.739 282.459 279.914 282.632C280.093 282.822 280.295 282.988 280.515 283.126Z" fill="white"/>
<path d="M316.629 280.455C316.643 280.616 316.627 280.777 316.583 280.932C316.583 280.932 305.27 282.822 302.956 280.932C302.305 280.38 301.547 279.971 300.73 279.729C299.912 279.488 299.054 279.42 298.209 279.53C298.209 279.53 293.832 279.649 293.101 278.204C292.797 277.598 292.876 276.421 293.065 275.264C293.257 274.176 293.513 273.101 293.832 272.043L294.007 271.903L295.048 271.065L307.24 270.704H307.333C307.273 273.203 311.468 276.07 311.468 276.07C315.935 277.727 316.593 279.6 316.629 280.455Z" fill="white"/>
<path opacity="0.1" d="M316.632 280.455C316.644 280.616 316.627 280.777 316.583 280.932C316.583 280.932 305.27 282.821 302.959 280.932C302.308 280.38 301.549 279.97 300.731 279.728C299.913 279.487 299.054 279.419 298.209 279.53C298.209 279.53 293.828 279.649 293.098 278.204C292.797 277.598 292.873 276.421 293.061 275.261C294.747 275.43 297.409 275.851 298.453 276.859C300.033 278.383 302.711 279.908 304.351 280.031C305.647 280.11 313.353 280.355 316.632 280.455Z" fill="black"/>
<path opacity="0.1" d="M280.515 283.126C280.515 283.126 275.226 285.075 271.589 285.32C269.659 285.45 268.644 284.263 268.122 283.12C269.47 283.574 271.338 284.048 272.32 283.613C273.484 283.093 277.61 282.762 279.924 282.619C280.098 282.813 280.297 282.984 280.515 283.126Z" fill="black"/>
<path d="M288.364 126.055C284 124.354 278.386 118.736 279.788 116.111C280.098 115.448 280.283 114.733 280.334 114.003C280.424 113.011 280.437 112.014 280.373 111.02C280.275 109.391 280.079 107.77 279.788 106.164C279.788 106.164 293.412 106.472 292.618 108.484C292.387 109.078 292.347 110.102 292.413 111.245C292.479 112.389 292.641 113.691 292.813 114.788C293.048 116.29 293.289 117.44 293.289 117.44C293.289 117.44 292.453 118.61 291.967 118.673C291.481 118.736 294.625 128.491 288.364 126.055Z" fill="#CF6F80"/>
<path opacity="0.1" d="M277.213 274.661L277.11 274.774C273.037 269.835 268.112 275.993 268.112 275.993L268.039 275.861L268.29 273.067L276.016 271.052L277.11 274.409L277.213 274.661Z" fill="black"/>
<path opacity="0.1" d="M307.339 271.051C307.339 271.051 304.364 270.992 302.777 272.397C301.19 273.803 293.521 272.699 293.851 272.397C293.948 272.244 294.007 272.07 294.023 271.89L295.065 271.051L307.257 270.69C307.303 270.922 307.339 271.051 307.339 271.051Z" fill="black"/>
<path d="M282.281 232.268C282.06 232.818 281.891 233.387 281.778 233.969C281.503 235.562 281.426 237.183 281.55 238.795C281.672 241.115 281.55 256.663 281.55 256.663C281.55 256.663 278.935 260.81 277.474 262.271C276.013 263.733 280.449 266.358 280.449 266.358C281.11 270.14 277.104 274.409 277.104 274.409C273.031 269.471 268.105 275.626 268.105 275.626C268.105 275.626 265.427 270.985 264.759 269.328C264.092 267.671 267.374 266.527 268.528 265.851C269.682 265.175 268.469 261.211 268.469 261.211C268.469 261.211 267.497 257.734 266.34 254.562C265.183 251.39 267.616 235.603 267.616 235.603C267.616 235.603 267.741 232.795 268.042 231.818C268.192 231.112 268.223 230.386 268.132 229.67C268.112 229.428 268.089 229.229 268.072 229.09C268.055 228.951 268.042 228.891 268.042 228.891L268.089 228.811L269.741 225.722C269.741 225.722 283.074 230.323 282.281 232.268Z" fill="#4FB394"/>
<path d="M307.339 270.687C307.339 270.687 304.364 270.624 302.777 272.013C301.19 273.401 293.521 272.318 293.851 272.013C294.182 271.708 294.152 269.454 294.152 269.454C289.653 263.292 293.491 260.793 293.491 260.793C293.491 260.793 291.484 251.098 291.121 247.502C290.866 244.993 290.552 238.221 290.383 234.386C290.311 232.729 290.268 231.585 290.268 231.585L293.911 230.86L294.384 230.767L303.25 228.98C303.25 228.98 303.495 230.637 303.66 231.993C303.744 232.572 303.789 233.155 303.796 233.74C303.739 234.403 303.796 236.481 303.796 236.481L304.1 242.699C303.903 243.352 303.801 244.029 303.796 244.711C303.858 245.506 305.012 256.845 305.012 256.845C305.012 256.845 307.019 263.614 306.334 264.101C305.65 264.588 307.339 270.687 307.339 270.687Z" fill="#4FB394"/>
<path opacity="0.1" d="M292.618 108.494C292.387 109.087 292.347 110.112 292.413 111.255C290.588 112.357 288.491 112.92 286.361 112.88C284.231 112.84 282.156 112.199 280.373 111.03C280.275 109.401 280.079 107.779 279.788 106.174C279.788 106.174 293.412 106.482 292.618 108.494Z" fill="black"/>
<path d="M297.878 101.176C297.914 104.183 296.757 107.081 294.661 109.233C292.566 111.385 289.703 112.614 286.704 112.651C283.705 112.687 280.814 111.526 278.667 109.426C276.521 107.325 275.295 104.455 275.259 101.447C275.259 101.355 275.259 101.268 275.259 101.176C275.259 98.1675 276.451 95.2825 278.572 93.1554C280.694 91.0284 283.571 89.8334 286.572 89.8334C289.572 89.8334 292.45 91.0284 294.571 93.1554C296.693 95.2825 297.885 98.1675 297.885 101.176H297.878Z" fill="#CF6F80"/>
<path opacity="0.1" d="M288.364 126.055C284 124.354 278.386 118.736 279.788 116.111C280.098 115.448 280.283 114.733 280.334 114.003L286.307 118.928L290.003 121.968L292.813 114.798C293.048 116.3 293.289 117.45 293.289 117.45C293.289 117.45 292.453 118.62 291.967 118.683C291.481 118.746 294.625 128.491 288.364 126.055Z" fill="black"/>
<path d="M303.812 147.821L298.823 231.844L292.317 232.272L275.467 183.551L278.231 125.71L278.816 113.489L286.307 119.657L290.003 122.697L292.896 115.315L298.275 120.015L303.812 147.821Z" fill="#4FB394"/>
<path opacity="0.1" d="M282.281 232.268C282.06 232.818 281.891 233.387 281.778 233.969C277.04 233.237 272.437 231.797 268.125 229.696L268.036 229.65L268.065 229.116V228.838L269.718 225.749C269.718 225.749 283.074 230.323 282.281 232.268Z" fill="black"/>
<path opacity="0.1" d="M294.02 233.982C292.81 234.189 291.589 234.33 290.364 234.403C290.291 232.746 290.248 231.602 290.248 231.602L293.911 230.86L294.02 233.982Z" fill="black"/>
<path opacity="0.1" d="M303.673 231.993C301.323 232.606 297.69 233.296 294.443 232.865L294.397 230.767L303.263 228.98C303.263 228.98 303.498 230.624 303.673 231.993Z" fill="black"/>
<path opacity="0.1" d="M294.384 233.249C280.829 235.57 268.416 228.917 268.416 228.917L268.535 226.663C268.535 226.663 268.842 201.112 267.989 199.153C267.136 197.194 266.472 187.274 266.955 185.759C267.437 184.244 265.193 161.374 265.193 161.374L264.829 152.093L251.509 146.667L257.46 134.228C258.264 132.484 258.955 130.691 259.53 128.859C260.564 125.627 265.368 122.455 265.368 122.455C265.368 122.455 270.294 119.286 272.241 119.406C274.188 119.525 276.74 116.601 276.74 116.601C278.624 111.785 280.33 113.95 280.33 113.95C280.33 114.182 280.33 113.95 280.238 114.662C279.577 119.949 290.929 136.654 291.091 136.953L292.185 163.356L293.279 196.77L294.384 233.249Z" fill="black"/>
<path d="M294.02 233.249C280.466 235.57 268.049 228.917 268.049 228.917L268.171 226.663C268.171 226.663 268.475 201.112 267.622 199.153C266.769 197.194 266.105 187.264 266.591 185.736C267.077 184.208 264.819 161.361 264.819 161.361L264.452 152.08L251.136 146.654L257.086 134.215C257.888 132.471 258.579 130.679 259.156 128.849C260.191 125.627 265.011 122.452 265.011 122.452C265.011 122.452 269.937 119.283 271.88 119.402C273.824 119.522 276.39 116.601 276.39 116.601C278.277 111.785 280.357 113.95 280.357 113.95C280.357 114.182 280.158 114.281 280.264 114.662C281.719 119.79 290.592 136.654 290.754 136.953L291.848 163.356L292.919 196.786L294.02 233.249Z" fill="white"/>
<path opacity="0.1" d="M290.367 137.698C288.909 137.089 281.186 128.249 281.186 128.249V126.237C280.905 125.574 279.233 125.978 277.881 126.442L278.462 114.222L279.124 114.772C280.568 119.896 290.208 137.403 290.367 137.698Z" fill="black"/>
<path d="M290.734 136.969C289.273 136.356 281.55 127.52 281.55 127.52V125.504C281.269 124.841 279.6 125.246 278.244 125.71L278.816 113.502L279.477 114.049C280.935 119.167 290.572 136.671 290.734 136.969Z" fill="white"/>
<path opacity="0.1" d="M268.416 181.052C268.598 181.052 277.841 180.078 277.841 180.078C277.841 180.078 283.438 191.115 283.071 193.797C282.704 196.478 282.039 198.858 279.788 198.437C277.537 198.016 267.672 198.768 267.672 198.768L268.416 181.052Z" fill="black"/>
<path d="M268.049 180.32C268.234 180.32 277.477 179.345 277.477 179.345C277.477 179.345 283.071 190.399 282.707 193.051C282.344 195.702 281.672 198.112 279.424 197.691C277.176 197.27 267.305 198.023 267.305 198.023L268.049 180.32Z" fill="white"/>
<path d="M275.014 175.153C275.014 175.153 283.497 179.727 283.679 181.119C283.861 182.511 279.362 180.509 278.39 180.264C277.75 180.111 277.099 180.009 276.443 179.959L269.96 180.134L275.014 175.153Z" fill="#CF6F80"/>
<path opacity="0.1" d="M287.997 138.269C288.49 138.269 288.889 137.868 288.889 137.374C288.889 136.879 288.49 136.479 287.997 136.479C287.504 136.479 287.104 136.879 287.104 137.374C287.104 137.868 287.504 138.269 287.997 138.269Z" fill="black"/>
<path d="M287.997 137.904C288.49 137.904 288.889 137.503 288.889 137.009C288.889 136.515 288.49 136.114 287.997 136.114C287.504 136.114 287.104 136.515 287.104 137.009C287.104 137.503 287.504 137.904 287.997 137.904Z" fill="#3F3D56"/>
<path opacity="0.1" d="M289.64 177.009C290.133 177.009 290.532 176.608 290.532 176.114C290.532 175.619 290.133 175.219 289.64 175.219C289.147 175.219 288.747 175.619 288.747 176.114C288.747 176.608 289.147 177.009 289.64 177.009Z" fill="black"/>
<path d="M289.64 176.641C290.133 176.641 290.532 176.24 290.532 175.746C290.532 175.251 290.133 174.851 289.64 174.851C289.147 174.851 288.747 175.251 288.747 175.746C288.747 176.24 289.147 176.641 289.64 176.641Z" fill="#3F3D56"/>
<path opacity="0.1" d="M288.889 157.639C289.382 157.639 289.782 157.238 289.782 156.744C289.782 156.249 289.382 155.849 288.889 155.849C288.396 155.849 287.997 156.249 287.997 156.744C287.997 157.238 288.396 157.639 288.889 157.639Z" fill="black"/>
<path d="M288.889 157.274C289.382 157.274 289.782 156.873 289.782 156.379C289.782 155.885 289.382 155.484 288.889 155.484C288.396 155.484 287.997 155.885 287.997 156.379C287.997 156.873 288.396 157.274 288.889 157.274Z" fill="#3F3D56"/>
<path d="M309.465 179.773C309.465 179.773 310.073 180.688 309.465 181.099C308.857 181.51 309.525 182.564 309.525 182.564C309.525 182.564 308.007 183.452 308.675 184.258C309.343 185.063 308.92 188.679 308.92 188.679L307.095 191.725C307.095 191.725 307.204 193.677 307.21 196.316C307.21 200.432 306.969 206.22 305.634 208.858L305.812 230.505C305.812 230.505 299.422 232.848 294.073 232.132L293.279 197.396C293.279 197.396 294.437 177.698 294.863 173.92C295.113 171.958 295.214 169.98 295.167 168.003C295.167 168.003 294.985 162.09 294.374 159.349C294.374 159.349 293.713 147.456 293.646 144.165C293.617 142.591 293.699 137.997 293.792 133.628C293.894 128.852 294.01 124.348 294.01 124.348L292.803 114.772C292.803 114.772 294.01 114.653 294.374 115.137C294.537 115.289 294.714 115.426 294.903 115.544C296.989 116.956 304.348 121.298 304.348 121.298C304.348 121.298 308.42 122.922 309.396 125.249C310.371 127.576 311.049 129.227 311.521 129.889C311.994 130.552 312.252 133.668 312.252 133.668C312.252 133.668 313.654 139.402 314.748 140.373C315.842 141.344 316.629 147.509 316.629 147.509L306.959 155.133C306.959 155.133 306.11 167.814 305.928 168.305C305.746 168.795 309.465 179.773 309.465 179.773Z" fill="white"/>
<path d="M309.832 179.773C309.832 179.773 310.437 180.688 309.832 181.099C309.227 181.51 309.888 182.564 309.888 182.564C309.888 182.564 308.371 183.452 309.039 184.257C309.706 185.063 309.283 188.679 309.283 188.679L307.465 191.725C307.465 191.725 307.574 193.677 307.584 196.316C307.584 200.432 307.343 206.219 306.007 208.858L306.189 230.505C306.189 230.505 299.799 232.848 294.45 232.132L293.66 197.396C293.66 197.396 294.813 177.698 295.243 173.919C295.493 171.958 295.594 169.98 295.544 168.003C295.544 168.003 295.362 162.09 294.754 159.349C294.754 159.349 294.093 147.456 294.023 144.165C293.994 142.591 294.076 137.997 294.169 133.628C294.271 128.852 294.387 124.347 294.387 124.347L292.794 114.643C292.794 114.643 294.387 114.643 294.754 115.136C294.915 115.291 295.093 115.427 295.283 115.544C297.366 116.956 304.725 121.298 304.725 121.298C304.725 121.298 308.787 122.922 309.779 125.249C310.771 127.576 311.432 129.226 311.905 129.889C312.378 130.552 312.636 133.668 312.636 133.668C312.636 133.668 314.037 139.402 315.131 140.373C316.226 141.344 317.016 147.509 317.016 147.509L307.346 155.133C307.346 155.133 306.496 167.814 306.311 168.305C306.126 168.795 309.832 179.773 309.832 179.773Z" fill="white"/>
<path opacity="0.1" d="M298.252 127.162L299.128 129.714L294.529 134.354C294.632 129.578 294.747 125.073 294.747 125.073L293.154 115.372C293.154 115.372 294.747 115.372 295.114 115.866C295.276 116.02 295.453 116.157 295.643 116.273L299.551 127.573L298.252 127.162Z" fill="black"/>
<path d="M297.878 126.429L298.754 128.978L294.159 133.618C294.258 128.842 294.377 124.338 294.377 124.338L292.78 114.633C292.78 114.633 294.377 114.633 294.741 115.127C294.903 115.28 295.08 115.417 295.27 115.534L299.2 126.843L297.878 126.429Z" fill="white"/>
<path opacity="0.1" d="M297.878 101.176C297.879 102.37 297.692 103.557 297.323 104.692C297.26 104.703 297.197 104.701 297.135 104.686C297.074 104.671 297.016 104.644 296.966 104.606C296.876 101.623 295.415 98.819 293.613 96.4359C293.107 95.7171 292.493 95.08 291.795 94.5466C291.088 94.0146 290.209 93.7654 289.329 93.8473C288.337 93.9832 287.461 94.6593 286.459 94.7455C285.137 94.8549 283.954 93.9367 282.641 93.8937C282.107 93.8981 281.581 94.0169 281.097 94.2422C280.613 94.4674 280.182 94.7938 279.834 95.1996C279.144 96.0157 278.632 96.9674 278.33 97.9937C277.81 99.551 277.527 101.178 277.491 102.82C277.474 103.748 277.385 104.911 276.525 105.249C276.59 104.567 276.513 103.879 276.298 103.228C276.084 102.578 275.737 101.979 275.279 101.471L275.259 101.447C275.259 101.355 275.259 101.268 275.259 101.176C275.259 98.1675 276.451 95.2825 278.572 93.1554C280.694 91.0284 283.571 89.8334 286.572 89.8334C289.572 89.8334 292.45 91.0284 294.571 93.1554C296.693 95.2825 297.885 98.1675 297.885 101.176H297.878Z" fill="black"/>
<path d="M291.266 83.1679C289.548 82.3577 287.594 82.2045 285.772 82.737C284.856 83.0088 283.993 83.4497 283.064 83.6717C281.081 84.1523 278.767 83.632 277.064 84.7954C276.119 85.4583 275.55 86.5056 275.021 87.5265L273.699 90.0489C272.978 91.431 272.251 92.8364 271.95 94.3577C271.649 95.8791 271.831 97.5828 272.793 98.8092C273.49 99.6975 274.528 100.258 275.289 101.096C275.746 101.607 276.092 102.208 276.306 102.86C276.52 103.512 276.597 104.201 276.532 104.885C277.391 104.553 277.477 103.383 277.497 102.455C277.534 100.813 277.817 99.1866 278.337 97.6292C278.639 96.6029 279.151 95.6511 279.841 94.835C280.189 94.4289 280.619 94.1019 281.103 93.8761C281.587 93.6503 282.114 93.5309 282.648 93.5258C283.97 93.5722 285.157 94.4903 286.466 94.3776C287.458 94.2948 288.337 93.6186 289.335 93.4827C290.216 93.3992 291.095 93.6487 291.802 94.1821C292.501 94.7138 293.113 95.3512 293.617 96.0714C295.422 98.4578 296.886 101.249 296.972 104.242C297.346 104.513 297.885 104.155 298.07 103.731C298.255 103.307 298.261 102.81 298.496 102.405C298.767 101.938 299.286 101.686 299.693 101.335C300.724 100.443 300.982 98.9417 300.942 97.5795C300.903 96.2172 300.638 94.835 300.896 93.496C301.052 92.6773 301.402 91.905 301.594 91.093C301.785 90.2809 301.809 89.3694 301.356 88.67C300.695 87.6458 299.303 87.4403 298.09 87.3442C296.711 87.2249 295.478 87.3774 294.598 86.214C294.185 85.6076 293.72 85.0377 293.21 84.5103C293.028 84.3346 291.266 83.2408 291.266 83.1679Z" fill="#512E4E"/>
<path opacity="0.1" d="M255.324 153.065L251.873 146.664L250.779 156.541C250.779 156.541 251.387 160.93 251.265 161.603C251.142 162.276 253.757 168.308 253.757 168.308C253.757 168.308 262.396 183.737 265.923 184.529L277.824 175.991L274.664 171.967C274.664 171.967 273.57 171.54 273.295 171.967C273.295 171.967 267.424 161.845 266.819 161.115C266.214 160.386 266.33 158.918 266.33 158.918C266.33 158.918 265.417 157.944 265.721 157.029C266.026 156.114 263.976 152.945 263.976 152.945L265.86 151.179L255.324 153.065Z" fill="black"/>
<path d="M252.055 145.932L251.142 146.664L250.048 156.541C250.048 156.541 250.657 160.93 250.534 161.603C250.412 162.276 253.03 168.308 253.03 168.308C253.03 168.308 261.665 183.737 265.193 184.529L277.114 175.991L273.95 171.967C273.95 171.967 272.856 171.54 272.581 171.967C272.581 171.967 266.713 161.845 266.105 161.115C265.497 160.386 265.619 158.918 265.619 158.918C265.619 158.918 264.707 157.943 265.011 157.029C265.315 156.114 263.245 152.945 263.245 152.945L265.13 151.179L252.055 145.932Z" fill="white"/>
<path opacity="0.1" d="M308.675 184.639C309.336 185.444 308.92 189.063 308.92 189.063L307.095 192.09C307.095 192.09 307.204 194.045 307.211 196.684L304.143 197.645C303.865 197.732 303.571 197.751 303.284 197.7C302.998 197.65 302.727 197.531 302.496 197.355C302.264 197.178 302.078 196.949 301.953 196.686C301.827 196.423 301.767 196.133 301.776 195.842L302.308 178.739L309.465 181.48C308.857 181.904 309.525 182.945 309.525 182.945C309.525 182.945 308.007 183.833 308.675 184.639Z" fill="black"/>
<path d="M309.039 184.274C309.7 185.076 309.283 188.696 309.283 188.696L307.465 191.725C307.465 191.725 307.574 193.678 307.584 196.316L304.46 197.294C304.189 197.379 303.901 197.398 303.621 197.349C303.341 197.3 303.077 197.185 302.85 197.012C302.623 196.84 302.441 196.616 302.319 196.359C302.196 196.101 302.137 195.819 302.146 195.534L302.678 178.371L309.832 181.119C309.22 181.543 309.888 182.584 309.888 182.584C309.888 182.584 308.371 183.469 309.039 184.274Z" fill="white"/>
<path d="M311.412 176.114C311.412 176.114 310.926 179.226 309.71 179.408C308.493 179.591 307.948 184.443 306.734 184.274C305.521 184.105 306.325 179.76 306.368 178.918C306.411 178.076 305.045 174.589 306.063 173.797C307.082 173.005 310.321 173.797 310.321 173.797L311.412 176.114Z" fill="#CF6F80"/>
<path opacity="0.1" d="M313.984 152.15L316.275 147.509C316.275 147.509 317.191 151.046 317.191 152.935C317.191 154.825 318.467 155.01 318.467 155.01C318.467 155.01 319.866 156.667 319.128 157.877C318.391 159.087 318.097 162.083 318.097 162.083C318.097 162.083 318.338 167.814 317.244 168.606C316.15 169.398 315.905 171.291 315.905 171.291C315.905 171.291 313.898 174.887 313.961 175.742C314.024 176.598 311.164 182.388 311.164 182.388C311.164 182.388 312.563 175.192 304.414 172.083C304.414 172.083 304.351 169.644 304.959 168.974C305.567 168.305 306.516 167.98 305.921 164.612C305.326 161.245 305.749 157.184 305.749 156.372C305.749 155.56 307.574 150.499 307.574 150.499L313.984 152.15Z" fill="black"/>
<path d="M315.003 146.846L317.006 147.509C317.006 147.509 317.922 151.046 317.922 152.935C317.922 154.824 319.198 155.01 319.198 155.01C319.198 155.01 320.596 156.667 319.859 157.877C319.122 159.087 318.824 162.083 318.824 162.083C318.824 162.083 319.069 167.814 317.975 168.606C316.88 169.398 316.652 171.291 316.652 171.291C316.652 171.291 314.645 174.887 314.708 175.742C314.771 176.598 311.908 182.388 311.908 182.388C311.908 182.388 313.307 175.192 305.158 172.083C305.158 172.083 305.098 169.644 305.706 168.974C306.315 168.305 307.263 167.98 306.668 164.612C306.073 161.245 306.496 157.184 306.496 156.372C306.496 155.56 308.321 150.499 308.321 150.499L315.003 146.846Z" fill="white"/>
<path opacity="0.1" d="M270.743 267.12C270.743 267.12 273.937 265.108 276.033 266.57C278.129 268.032 270.743 267.12 270.743 267.12Z" fill="black"/>
<path opacity="0.1" d="M295.564 260.899C295.564 260.899 298.39 260.535 300.764 263.097C303.138 265.659 295.564 260.899 295.564 260.899Z" fill="black"/>
<g opacity="0.1">
<path opacity="0.1" d="M299.693 100.606C299.286 100.96 298.764 101.209 298.493 101.676C298.261 102.077 298.255 102.575 298.07 103.002C297.885 103.43 297.346 103.784 296.969 103.513C296.883 100.529 295.418 97.7287 293.617 95.3422C293.113 94.623 292.501 93.9867 291.802 93.4562C291.095 92.9217 290.214 92.6711 289.332 92.7536C288.34 92.8895 287.468 93.5656 286.466 93.6518C285.144 93.7612 283.957 92.8431 282.644 92.8C282.111 92.804 281.585 92.9227 281.101 93.148C280.618 93.3732 280.188 93.6999 279.841 94.1059C279.151 94.922 278.638 95.8737 278.337 96.9C277.817 98.4574 277.534 100.084 277.497 101.726C277.477 102.651 277.391 103.804 276.538 104.149C276.558 104.395 276.558 104.642 276.538 104.888C277.401 104.557 277.487 103.387 277.507 102.458C277.544 100.817 277.827 99.1899 278.347 97.6325C278.648 96.6062 279.161 95.6545 279.851 94.8384C280.198 94.4325 280.628 94.1057 281.111 93.8798C281.595 93.654 282.121 93.5345 282.654 93.5292C283.977 93.5756 285.167 94.4937 286.476 94.381C287.468 94.2981 288.347 93.622 289.342 93.4861C290.223 93.4027 291.104 93.6521 291.812 94.1854C292.511 94.7171 293.123 95.3545 293.627 96.0747C295.428 98.4612 296.893 101.252 296.979 104.245C297.356 104.517 297.894 104.159 298.08 103.735C298.265 103.31 298.271 102.813 298.503 102.409C298.774 101.941 299.296 101.69 299.703 101.338C300.734 100.447 300.992 98.9451 300.952 97.5828C300.952 97.5397 300.952 97.5 300.952 97.4569C300.886 98.6435 300.572 99.8466 299.693 100.606Z" fill="black"/>
<path opacity="0.1" d="M275.285 100.374C274.528 99.535 273.49 98.9715 272.793 98.0832C272.204 97.2991 271.868 96.353 271.831 95.3719C271.727 96.5986 272.069 97.8216 272.793 98.8157C273.49 99.704 274.528 100.264 275.285 101.103C276.017 101.923 276.456 102.962 276.535 104.059C276.585 103.392 276.5 102.722 276.285 102.089C276.07 101.455 275.73 100.872 275.285 100.374Z" fill="black"/>
<path opacity="0.1" d="M301.594 90.3638C301.399 91.1759 301.052 91.9482 300.893 92.7669C300.798 93.3205 300.763 93.8829 300.79 94.444C300.801 94.127 300.836 93.8113 300.893 93.4994C301.052 92.6807 301.399 91.9084 301.594 91.0963C301.706 90.6482 301.743 90.1844 301.703 89.7241C301.682 89.9397 301.645 90.1534 301.594 90.3638Z" fill="black"/>
</g>
<path opacity="0.1" d="M43.8792 278.048C61.6698 278.048 76.0919 275.726 76.0919 272.861C76.0919 269.996 61.6698 267.674 43.8792 267.674C26.0886 267.674 11.6665 269.996 11.6665 272.861C11.6665 275.726 26.0886 278.048 43.8792 278.048Z" fill="#4FB394"/>
<path d="M44.9173 173.489H42.8445V220.28H44.9173V173.489Z" fill="#535461"/>
<path d="M57.9458 220.14L57.8135 222.248L57.6317 225.232L57.5557 226.471L57.3706 229.454L57.2912 230.694L57.1094 233.677L55.0168 267.508C54.9275 268.964 54.2878 270.33 53.2282 271.329C52.1685 272.328 50.7686 272.885 49.3141 272.884H38.4476C36.989 272.885 35.5855 272.326 34.5251 271.322C33.4646 270.318 32.8277 268.945 32.7449 267.485L30.6523 233.654L30.4705 230.671L30.3944 229.431L30.206 226.448L30.13 225.208L29.9481 222.225L29.8159 220.117C29.793 219.713 29.8524 219.309 29.9904 218.928C30.1284 218.548 30.3421 218.2 30.6186 217.905C30.8951 217.61 31.2285 217.375 31.5986 217.213C31.9687 217.051 32.3677 216.967 32.7714 216.965H54.9936C55.3991 216.967 55.7998 217.053 56.1711 217.216C56.5424 217.379 56.8766 217.617 57.1531 217.914C57.4295 218.211 57.6424 218.562 57.7788 218.945C57.9151 219.328 57.9719 219.735 57.9458 220.14Z" fill="#3F3D56"/>
<path d="M57.8135 222.245L57.6284 225.222H30.13L29.9448 222.245H57.8135Z" fill="#9D9CB5"/>
<path d="M57.5524 226.461L57.3706 229.438H30.3911L30.206 226.461H57.5524Z" fill="#9D9CB5"/>
<path d="M57.2912 230.681L57.1094 233.654H30.6523L30.4671 230.681H57.2912Z" fill="#9D9CB5"/>
<path d="M26.7943 191.029C38.8674 199.786 43.8957 213.482 43.8957 213.482C43.8957 213.482 29.3498 212.981 17.2733 204.224C5.19687 195.467 0.161987 181.781 0.161987 181.781C0.161987 181.781 14.7079 182.272 26.7943 191.029Z" fill="#4FB394"/>
<path d="M0.161987 181.781C0.161987 181.781 15.26 190.184 20.1032 197.141C24.9463 204.098 43.8825 213.488 43.8825 213.488" stroke="#535461" stroke-width="2" stroke-miterlimit="10"/>
<path d="M34.5731 173.389C41.1452 178.152 43.8825 185.607 43.8825 185.607C43.8825 185.607 35.9483 185.335 29.3927 180.572C22.8371 175.809 20.0833 168.351 20.0833 168.351C20.0833 168.351 28.0043 168.623 34.5731 173.389Z" fill="#4FB394"/>
<path d="M20.0833 168.351C20.0833 168.351 28.3018 172.925 30.9399 176.71C33.578 180.496 43.8825 185.607 43.8825 185.607" stroke="#535461" stroke-width="2" stroke-miterlimit="10"/>
<path d="M53.4299 185.229C45.8825 193.545 44.2858 204.413 44.2858 204.413C44.2858 204.413 54.9275 201.795 62.4682 193.475C70.009 185.156 71.6124 174.291 71.6124 174.291C71.6124 174.291 60.9773 176.913 53.4299 185.229Z" fill="#4FB394"/>
<path d="M71.619 174.294C71.619 174.294 61.7872 182.819 59.288 188.692C56.7887 194.566 44.2858 204.413 44.2858 204.413" stroke="#535461" stroke-width="2" stroke-miterlimit="10"/>
</g>
<defs>
<linearGradient id="paint0_linear" x1="153.899" y1="276.948" x2="153.899" y2="85.4848" gradientUnits="userSpaceOnUse">
<stop stop-color="#808080" stop-opacity="0.25"/>
<stop offset="0.54" stop-color="#808080" stop-opacity="0.12"/>
<stop offset="1" stop-color="#808080" stop-opacity="0.1"/>
</linearGradient>
<linearGradient id="paint1_linear" x1="62904.3" y1="179432" x2="62904.3" y2="53936.9" gradientUnits="userSpaceOnUse">
<stop stop-color="#808080" stop-opacity="0.25"/>
<stop offset="0.54" stop-color="#808080" stop-opacity="0.12"/>
<stop offset="1" stop-color="#808080" stop-opacity="0.1"/>
</linearGradient>
<clipPath id="clip0">
<rect width="386" height="286" fill="white"/>
</clipPath>
</defs>
</svg>
